<svg xmlns="http://www.w3.org/2000/svg" width="700" height="700" viewBox="0 0 700 700"><path fill="none" d="M-594 42H22v616h-616z"/><path fill="none" d="M0 0h700v700H0z"/><linearGradient id="a" gradientUnits="userSpaceOnUse" x1="224.9753" y1="287.6644" x2="224.9753" y2="490.4431"><stop offset="0" stop-color="#F9E647"/><stop offset="1" stop-color="#FFF" stop-opacity="0"/></linearGradient><path fill="url(#a)" d="M171 276.4h108v222.9H171z"/><linearGradient id="b" gradientUnits="userSpaceOnUse" x1="351.2426" y1="247.1477" x2="351.2426" y2="488.7395"><stop offset="0" stop-color="#F9E647"/><stop offset="1" stop-color="#FFF" stop-opacity="0"/></linearGradient><path fill="url(#b)" d="M297.3 233.7h108v265.6h-108z"/><linearGradient id="c" gradientUnits="userSpaceOnUse" x1="477.5099" y1="197.5353" x2="477.5099" y2="486.6534"><stop offset="0" stop-color="#F9E647"/><stop offset="1" stop-color="#FFF" stop-opacity="0"/></linearGradient><path fill="url(#c)" d="M423.5 181.5h108v317.8h-108z"/><g opacity=".5"><radialGradient id="d" cx="-53.0392" cy="366.5781" r="32.998" gradientTransform="matrix(1.709 0 0 .3182 315.545 391.364)" gradientUnits="userSpaceOnUse"><stop offset="0"/><stop offset="1" stop-color="#FFF" stop-opacity="0"/></radialGradient><ellipse fill="url(#d)" cx="224.9" cy="508" rx="56.4" ry="10.5"/></g><g opacity=".5"><radialGradient id="e" cx="21.3501" cy="366.5781" r="32.998" gradientTransform="matrix(1.709 0 0 .3182 315.545 391.364)" gradientUnits="userSpaceOnUse"><stop offset="0"/><stop offset="1" stop-color="#FFF" stop-opacity="0"/></radialGradient><ellipse fill="url(#e)" cx="352" cy="508" rx="56.4" ry="10.5"/></g><g opacity=".5"><radialGradient id="f" cx="92.6823" cy="366.5781" r="32.998" gradientTransform="matrix(1.709 0 0 .3182 315.545 391.364)" gradientUnits="userSpaceOnUse"><stop offset="0"/><stop offset="1" stop-color="#FFF" stop-opacity="0"/></radialGradient><ellipse fill="url(#f)" cx="473.9" cy="508" rx="56.4" ry="10.5"/></g><path fill="none" stroke="#808184" stroke-width="3.3039" stroke-miterlimit="10" d="M350.2 321.7V378"/><path fill="none" stroke="#808184" stroke-width="3.3039" stroke-miterlimit="10" d="M472.7 295.8V378"/><path fill="none" stroke="#000" stroke-width="3.276" stroke-linecap="square" stroke-miterlimit="10" d="M248.1 436.1l-12.7 12.8"/><path d="M263.9412 436.281h-17.1v-4.1h17.1z"/><path fill="none" stroke="#000" stroke-width="1.404" stroke-miterlimit="10" d="M223.6 465.1l25.6 42.8h8.1"/><path d="M208 431.7h5.4v28H208z"/><linearGradient id="g" gradientUnits="userSpaceOnUse" x1="223.6243" y1="366.0353" x2="223.6243" y2="350.7384"><stop offset=".2591"/><stop offset="1" stop-color="gray"/></linearGradient><path fill="url(#g)" d="M237.8 366h-28.4c-3.3 0-6-2.7-6-6v-3.2c0-3.3 2.7-6 6-6h28.4c3.3 0 6 2.7 6 6v3.2c.1 3.3-2.6 6-6 6z"/><path fill="none" stroke="#F2B912" stroke-width="11.232" stroke-miterlimit="10" d="M223.6 385.9v74.6"/><path fill="none" stroke="#404041" stroke-width="2.8845" stroke-linecap="round" stroke-miterlimit="10" d="M217 385.1h13.8"/><path fill="none" stroke="#000" stroke-width="3.276" stroke-linecap="square" stroke-miterlimit="10" d="M198.3 468.9l12.7-12.7"/><path fill="none" stroke="#404041" stroke-width="4.0383" stroke-miterlimit="10" d="M179.2 326.8h3.7c5.8 0 11.3 9.8 15.4 13.8 4.1 4.1 9.6 6.4 15.4 6.4h20.2c5.8 0 11.3-2.3 15.4-6.4 4.1-4.1 9.6-13.8 15.4-13.8h3.7"/><path fill="none" stroke="#404041" stroke-width="4.0383" stroke-miterlimit="10" d="M223.7 347v31"/><path fill="none" stroke="#F9E647" stroke-width="7.02" stroke-linecap="square" stroke-miterlimit="10" d="M223.7 397.9V378"/><path fill="#F9E647" d="M210.9 457.3c.2-10.3.2-20.6.1-30.8l-.1-7.7v-4.9-1.1c0-.7.1-1.5.2-2.2.4-2.9 1.4-5.9 3.5-8.5 1-1.3 2.4-2.4 4-3.2 1.6-.8 3.4-1.1 5.1-1.1 1.7 0 3.5.3 5.1 1.1 1.6.8 3 1.9 4 3.2 2.1 2.6 3.1 5.6 3.5 8.5.1.7.2 1.5.2 2.2v6l-.1 7.7c-.1 10.3-.1 20.6.1 30.8 0 1.4-1.1 2.5-2.5 2.6-1.4 0-2.5-1.1-2.6-2.5v-.1c.2-10.3.2-20.6.1-30.8l-.1-7.7v-3.9-.9c0-.3 0-.6-.1-.8-.1-.5-.1-1.1-.2-1.6-.5-2.1-1.5-4.1-2.9-5.3-1.4-1.3-2.9-1.8-4.6-1.8-1.7 0-3.2.5-4.6 1.8-1.3 1.3-2.4 3.2-2.9 5.3-.1.5-.2 1.1-.2 1.6 0 .3 0 .5-.1.8v4.8l-.1 7.7c-.1 10.3-.1 20.6.1 30.8 0 1.4-1.1 2.5-2.5 2.5s-2.3-1-2.4-2.5c0 .1 0 .1 0 0z"/><path fill="none" stroke="#404041" stroke-width="8.0766" stroke-miterlimit="10" d="M223.7 413.4v94.7"/><path fill="none" stroke="#404041" stroke-width="7.4997" stroke-linecap="round" stroke-miterlimit="10" d="M261.2 328h18.7"/><path fill="none" stroke="#404041" stroke-width="7.4997" stroke-linecap="round" stroke-miterlimit="10" d="M171.7 328h14.6"/><path fill="none" stroke="#404041" stroke-width="2.8845" stroke-linecap="round" stroke-miterlimit="10" d="M219.6 374.8h8"/><path fill="none" stroke="#404041" stroke-width="10.764" stroke-linecap="square" stroke-miterlimit="10" d="M223.7 422.9v-14.3"/><path d="M182.4 468.8h17.1v4.1h-17.1z"/><path fill="none" stroke="#000" stroke-width="3.276" stroke-linecap="square" stroke-miterlimit="10" d="M497.2 436.1l-12.7 12.8"/><path d="M513.0293 436.281h-17.1v-4.1h17.1z"/><path fill="none" stroke="#000" stroke-width="1.404" stroke-miterlimit="10" d="M472.7 465.1l25.6 42.8h8.1"/><path d="M457.1 431.7h5.4v28h-5.4z"/><linearGradient id="h" gradientUnits="userSpaceOnUse" x1="472.7184" y1="298.5583" x2="472.7184" y2="283.2614"><stop offset=".2591"/><stop offset="1" stop-color="gray"/></linearGradient><path fill="url(#h)" d="M486.9 298.6h-28.4c-3.3 0-6-2.7-6-6v-3.2c0-3.3 2.7-6 6-6h28.4c3.3 0 6 2.7 6 6v3.2c.1 3.3-2.7 6-6 6z"/><path fill="none" stroke="#F2B912" stroke-width="11.232" stroke-miterlimit="10" d="M472.7 385.9v74.6"/><path fill="none" stroke="#404041" stroke-width="2.8845" stroke-linecap="round" stroke-miterlimit="10" d="M466 385.1h13.9"/><path fill="none" stroke="#000" stroke-width="3.276" stroke-linecap="square" stroke-miterlimit="10" d="M447.4 468.9l12.7-12.7"/><path fill="none" stroke="#404041" stroke-width="4.0383" stroke-miterlimit="10" d="M428.3 326.8h3.7c5.8 0 11.3 9.8 15.4 13.8 4.1 4.1 9.6 6.4 15.4 6.4H483c5.8 0 11.3-2.3 15.4-6.4 4.1-4.1 9.6-13.8 15.4-13.8h3.7"/><path fill="none" stroke="#404041" stroke-width="4.0383" stroke-miterlimit="10" d="M472.8 347v31"/><path fill="none" stroke="#F9E647" stroke-width="7.02" stroke-linecap="square" stroke-miterlimit="10" d="M472.8 397.9V378"/><path fill="#F9E647" d="M460 457.3c.2-10.3.2-20.6.1-30.8l-.1-7.7v-4.9-1.1c0-.7.1-1.5.2-2.2.4-2.9 1.4-5.9 3.5-8.5 1-1.3 2.4-2.4 4-3.2 1.6-.8 3.4-1.1 5.1-1.1 1.7 0 3.5.3 5.1 1.1 1.6.8 3 1.9 4 3.2 2.1 2.6 3.1 5.6 3.5 8.5.1.7.2 1.5.2 2.2v6l-.1 7.7c-.1 10.3-.1 20.6.1 30.8 0 1.4-1.1 2.5-2.5 2.6-1.4 0-2.5-1.1-2.6-2.5v-.1c.2-10.3.2-20.6.1-30.8l-.1-7.7v-3.9-.9c0-.3 0-.6-.1-.8-.1-.5-.1-1.1-.2-1.6-.5-2.1-1.5-4.1-2.9-5.3-1.4-1.3-2.9-1.8-4.6-1.8-1.7 0-3.2.5-4.6 1.8-1.3 1.3-2.4 3.2-2.9 5.3-.1.5-.2 1.1-.2 1.6 0 .3 0 .5-.1.8v4.8l-.1 7.7c-.1 10.3-.1 20.6.1 30.8 0 1.4-1.1 2.5-2.5 2.5-1.2.1-2.4-1-2.4-2.5 0 .1 0 .1 0 0z"/><path fill="none" stroke="#404041" stroke-width="8.0766" stroke-miterlimit="10" d="M472.8 413.4v94.7"/><path fill="none" stroke="#404041" stroke-width="7.4997" stroke-linecap="round" stroke-miterlimit="10" d="M510.3 328H529"/><path fill="none" stroke="#404041" stroke-width="7.4997" stroke-linecap="round" stroke-miterlimit="10" d="M420.8 328h14.6"/><path fill="none" stroke="#404041" stroke-width="2.8845" stroke-linecap="round" stroke-miterlimit="10" d="M468.7 374.8h8"/><path fill="none" stroke="#404041" stroke-width="10.764" stroke-linecap="square" stroke-miterlimit="10" d="M472.8 422.9v-14.3"/><path d="M431.5 468.8h17.1v4.1h-17.1z"/><path fill="none" stroke="#000" stroke-width="3.276" stroke-linecap="square" stroke-miterlimit="10" d="M375 447.8l-12.8 7"/><path d="M390.8453 447.995h-17.1v-4.1h17.1z"/><path fill="none" stroke="#000" stroke-width="1.404" stroke-miterlimit="10" d="M350 465.1l25.5 42.8h8.2"/><path d="M334.4 431.7h5.4v28h-5.4z"/><linearGradient id="i" gradientUnits="userSpaceOnUse" x1="349.9849" y1="326.938" x2="349.9849" y2="311.6411"><stop offset=".2591"/><stop offset="1" stop-color="gray"/></linearGradient><path fill="url(#i)" d="M364.2 326.9h-28.4c-3.3 0-6-2.7-6-6v-3.2c0-3.3 2.7-6 6-6h28.4c3.3 0 6 2.7 6 6v3.2c0 3.3-2.7 6-6 6z"/><path fill="none" stroke="#F2B912" stroke-width="11.232" stroke-miterlimit="10" d="M350 385.9v74.6"/><path fill="none" stroke="#404041" stroke-width="2.8845" stroke-linecap="round" stroke-miterlimit="10" d="M343.3 385.1h13.8"/><path fill="none" stroke="#000" stroke-width="3.276" stroke-linecap="square" stroke-miterlimit="10" d="M324.6 463.2l12.8-7"/><path fill="none" stroke="#404041" stroke-width="4.0383" stroke-miterlimit="10" d="M305.5 326.8h3.7c5.8 0 11.3 9.8 15.4 13.8 4.1 4.1 9.6 6.4 15.4 6.4h20.2c5.8 0 11.3-2.3 15.4-6.4 4.1-4.1 9.6-13.8 15.4-13.8h3.7"/><path fill="none" stroke="#404041" stroke-width="4.0383" stroke-miterlimit="10" d="M350.1 347v31"/><path fill="none" stroke="#F9E647" stroke-width="7.02" stroke-linecap="square" stroke-miterlimit="10" d="M350.1 397.9V378"/><path fill="#F9E647" d="M337.3 457.3c.2-10.3.2-20.6.1-30.8l-.1-7.7v-4.9-1.1c0-.7.1-1.5.2-2.2.4-2.9 1.4-5.9 3.5-8.5 1-1.3 2.4-2.4 4-3.2 1.6-.8 3.4-1.1 5.1-1.1 1.7 0 3.5.3 5.1 1.1 1.6.8 3 1.9 4 3.2 2.1 2.6 3.1 5.6 3.5 8.5.1.7.2 1.5.2 2.2v6l-.1 7.7c-.1 10.3-.1 20.6.1 30.8 0 1.4-1.1 2.5-2.5 2.6-1.4 0-2.5-1.1-2.6-2.5v-.1c.2-10.3.2-20.6.1-30.8l-.1-7.7v-3.9-.9c0-.3 0-.6-.1-.8-.1-.5-.1-1.1-.2-1.6-.5-2.1-1.5-4.1-2.9-5.3-1.4-1.3-2.9-1.8-4.6-1.8-1.7 0-3.2.5-4.6 1.8-1.3 1.3-2.4 3.2-2.9 5.3-.1.5-.2 1.1-.2 1.6 0 .3 0 .5-.1.8v4.8l-.1 7.7c-.1 10.3-.1 20.6.1 30.8 0 1.4-1.1 2.5-2.5 2.5-1.2.1-2.4-1-2.4-2.5 0 .1 0 .1 0 0z"/><path fill="none" stroke="#404041" stroke-width="8.0766" stroke-miterlimit="10" d="M350.1 413.4v94.7"/><path fill="none" stroke="#404041" stroke-width="7.4997" stroke-linecap="round" stroke-miterlimit="10" d="M387.5 328h18.7"/><path fill="none" stroke="#404041" stroke-width="7.4997" stroke-linecap="round" stroke-miterlimit="10" d="M298 328h14.6"/><path fill="none" stroke="#404041" stroke-width="2.8845" stroke-linecap="round" stroke-miterlimit="10" d="M346 374.8h8"/><path fill="none" stroke="#404041" stroke-width="10.764" stroke-linecap="square" stroke-miterlimit="10" d="M350.1 422.9v-14.3"/><path d="M308.8 463h17.1v4.1h-17.1z"/><path fill="#58595B" d="M471 298.6h3.4v3.4H471z"/><path fill="#58595B" d="M348.5 326.9h3.4v3.4h-3.4z"/></svg>