<svg xmlns="http://www.w3.org/2000/svg" xmlns:xlink="http://www.w3.org/1999/xlink" width="384" height="384" viewBox="0 0 384 384"><defs><filter id="luminosity-noclip" x="166.75" y="-8519.5" width="25.08" height="32766" filterUnits="userSpaceOnUse" color-interpolation-filters="sRGB"><feFlood flood-color="#fff" result="bg"/><feBlend in="SourceGraphic" in2="bg"/></filter><mask id="mask" x="166.75" y="-8519.5" width="25.08" height="32766" maskUnits="userSpaceOnUse"><g filter="url(#luminosity-noclip)"/></mask><linearGradient id="linear-gradient" x1="169.22" y1="215.96" x2="169.22" y2="133.69" gradientTransform="matrix(0.97, -0.26, 0.26, 0.97, -29.51, 219.01)" gradientUnits="userSpaceOnUse"><stop offset="0"/><stop offset="0.26" stop-color="#4a4a4a"/><stop offset="0.61" stop-color="#aaa"/><stop offset="0.86" stop-color="#e7e7e7"/><stop offset="0.98" stop-color="#fff"/></linearGradient><filter id="luminosity-noclip-2" x="341.25" y="-8519.5" width="6.84" height="32766" filterUnits="userSpaceOnUse" color-interpolation-filters="sRGB"><feFlood flood-color="#fff" result="bg"/><feBlend in="SourceGraphic" in2="bg"/></filter><mask id="mask-2" x="341.25" y="-8519.5" width="6.84" height="32766" maskUnits="userSpaceOnUse"><g filter="url(#luminosity-noclip-2)"/></mask><radialGradient id="radial-gradient" cx="489.19" cy="486.77" r="16.03" gradientTransform="matrix(-1.33, 0, 0, -0.19, 992.85, 348.97)" gradientUnits="userSpaceOnUse"><stop offset="0" stop-color="#fff"/><stop offset="0.01" stop-color="#fafafa"/><stop offset="0.13" stop-color="silver"/><stop offset="0.25" stop-color="#8d8d8d"/><stop offset="0.37" stop-color="#626262"/><stop offset="0.5" stop-color="#3e3e3e"/><stop offset="0.62" stop-color="#232323"/><stop offset="0.74" stop-color="#0f0f0f"/><stop offset="0.87" stop-color="#040404"/><stop offset="1"/></radialGradient><filter id="luminosity-noclip-3" x="255.36" y="-8519.5" width="7.84" height="32766" filterUnits="userSpaceOnUse" color-interpolation-filters="sRGB"><feFlood flood-color="#fff" result="bg"/><feBlend in="SourceGraphic" in2="bg"/></filter><mask id="mask-3" x="255.36" y="-8519.5" width="7.84" height="32766" maskUnits="userSpaceOnUse"><g filter="url(#luminosity-noclip-3)"/></mask><radialGradient id="radial-gradient-2" cx="447.62" cy="916.43" r="20.64" gradientTransform="matrix(-0.37, 0, 0, -0.19, 424.26, 443.07)" xlink:href="#radial-gradient"/><filter id="luminosity-noclip-4" x="412.2" y="-8519.5" width="7.49" height="32766" filterUnits="userSpaceOnUse" color-interpolation-filters="sRGB"><feFlood flood-color="#fff" result="bg"/><feBlend in="SourceGraphic" in2="bg"/></filter><mask id="mask-4" x="412.2" y="-8519.5" width="7.49" height="32766" maskUnits="userSpaceOnUse"><g filter="url(#luminosity-noclip-4)"/></mask><radialGradient id="radial-gradient-3" cx="508.78" cy="106.51" r="12.87" gradientTransform="matrix(-1.32, 0, 0, -0.19, 1090.07, 304.34)" xlink:href="#radial-gradient"/><filter id="luminosity-noclip-5" x="465.41" y="-8519.5" width="26.73" height="32766" filterUnits="userSpaceOnUse" color-interpolation-filters="sRGB"><feFlood flood-color="#fff" result="bg"/><feBlend in="SourceGraphic" in2="bg"/></filter><mask id="mask-5" x="465.41" y="-8519.5" width="26.73" height="32766" maskUnits="userSpaceOnUse"><g filter="url(#luminosity-noclip-5)"/></mask><radialGradient id="radial-gradient-4" cx="745.15" cy="-414.93" r="53.68" gradientTransform="matrix(-0.25, 0, 0, -0.05, 664.33, 279.58)" xlink:href="#radial-gradient"/><linearGradient id="linear-gradient-2" x1="403.28" y1="332.92" x2="403.28" y2="443.92" gradientUnits="userSpaceOnUse"><stop offset="0" stop-color="gray"/><stop offset="0.74"/></linearGradient><linearGradient id="linear-gradient-3" x1="364.51" y1="360.16" x2="364.51" y2="418" xlink:href="#linear-gradient-2"/><linearGradient id="linear-gradient-4" x1="255.48" y1="332.92" x2="255.48" y2="443.92" xlink:href="#linear-gradient-2"/><linearGradient id="linear-gradient-5" x1="191.84" y1="251.78" x2="191.84" y2="164.79" gradientUnits="userSpaceOnUse"><stop offset="0" stop-color="#c1c1c1"/><stop offset="1" stop-color="#bfbfbf"/></linearGradient><linearGradient id="linear-gradient-6" x1="179.64" y1="251.78" x2="179.64" y2="167.5" gradientUnits="userSpaceOnUse"><stop offset="0" stop-color="#bebebe"/><stop offset="0.09" stop-color="#bbb"/><stop offset="0.99" stop-color="#a4a4a4"/></linearGradient><linearGradient id="linear-gradient-7" x1="160.5" y1="251.78" x2="160.5" y2="208.42" xlink:href="#linear-gradient-6"/><linearGradient id="linear-gradient-8" x1="139.96" y1="251.78" x2="139.96" y2="164.8" xlink:href="#linear-gradient-6"/><linearGradient id="linear-gradient-9" x1="108.68" y1="251.78" x2="108.68" y2="182.23" xlink:href="#linear-gradient-6"/><linearGradient id="linear-gradient-10" x1="92.42" y1="251.78" x2="92.42" y2="192.17" xlink:href="#linear-gradient-6"/><linearGradient id="linear-gradient-11" x1="74.01" y1="251.78" x2="74.01" y2="187.32" xlink:href="#linear-gradient-6"/><linearGradient id="linear-gradient-12" x1="56.07" y1="251.78" x2="56.07" y2="196.05" xlink:href="#linear-gradient-6"/><linearGradient id="linear-gradient-13" x1="22.06" y1="251.78" x2="22.06" y2="202.13" xlink:href="#linear-gradient-6"/><linearGradient id="linear-gradient-14" x1="8.7" y1="251.78" x2="8.7" y2="234.35" xlink:href="#linear-gradient-6"/><linearGradient id="linear-gradient-15" x1="205.45" y1="251.78" x2="205.45" y2="201.6" xlink:href="#linear-gradient-6"/><linearGradient id="linear-gradient-16" x1="246.51" y1="251.78" x2="246.51" y2="203.2" xlink:href="#linear-gradient-6"/><linearGradient id="linear-gradient-17" x1="276.29" y1="251.78" x2="276.29" y2="228.72" xlink:href="#linear-gradient-6"/><linearGradient id="linear-gradient-18" x1="307.78" y1="251.78" x2="307.78" y2="210.47" xlink:href="#linear-gradient-6"/><linearGradient id="linear-gradient-19" x1="342.06" y1="251.78" x2="342.06" y2="210.47" xlink:href="#linear-gradient-6"/><linearGradient id="linear-gradient-20" x1="258.38" y1="385.28" x2="258.38" y2="268.81" gradientUnits="userSpaceOnUse"><stop offset="0" stop-color="#bfbfbf"/><stop offset="1" stop-color="#bfbfbf"/></linearGradient><linearGradient id="linear-gradient-21" x1="263.13" y1="331.04" x2="263.13" y2="268.81" gradientUnits="userSpaceOnUse"><stop offset="0" stop-color="#eaeaea"/><stop offset="1" stop-color="#e2e2e2"/></linearGradient><linearGradient id="linear-gradient-22" x1="252.95" y1="385.28" x2="252.95" y2="331.38" gradientUnits="userSpaceOnUse"><stop offset="0" stop-color="#ececec"/><stop offset="0.12" stop-color="#e8e8e8"/><stop offset="0.98" stop-color="#d1d1d1"/></linearGradient><linearGradient id="linear-gradient-23" x1="254.13" y1="359.57" x2="254.13" y2="268.8" gradientUnits="userSpaceOnUse"><stop offset="0" stop-color="#eaeaea"/><stop offset="0.88" stop-color="#dfdfdf"/><stop offset="1" stop-color="#ddd"/></linearGradient><linearGradient id="linear-gradient-24" x1="153.74" y1="322.7" x2="153.74" y2="238.79" gradientTransform="translate(464.75 189.58) rotate(90)" gradientUnits="userSpaceOnUse"><stop offset="0" stop-color="#f4f4f4"/><stop offset="1" stop-color="#c6c6c6"/></linearGradient><linearGradient id="linear-gradient-25" x1="166.22" y1="344.58" x2="192.62" y2="344.58" gradientTransform="translate(523.8 164.78) rotate(89.94)" xlink:href="#linear-gradient-20"/><filter id="luminosity-noclip-6" x="166.75" y="304.66" width="25.08" height="78.49" filterUnits="userSpaceOnUse" color-interpolation-filters="sRGB"><feFlood flood-color="#fff" result="bg"/><feBlend in="SourceGraphic" in2="bg"/></filter><mask id="mask-6" x="31" y="169.16" width="25.08" height="78.49" maskUnits="userSpaceOnUse"><g filter="url(#luminosity-noclip-6)"><g transform="translate(-135.74 -135.5)"><g mask="url(#mask)"><path d="M185.21,304.68h6.61V307h-6.61Zm-7.3,2.29h6.61v-2.3h-6.61Zm-6.11,0h5.43v-2.3h-5.43Zm-2.48,0h2v-2.3h-2Zm-2.49,0h2v-2.3h-2Zm18.38,2.95h6.61v-2.3h-6.61Zm-7.3,0h6.61v-2.3h-6.61Zm-6.11,0h5.43v-2.3h-5.42Zm-2.48,0h2v-2.3h-2Zm-2.49,0h2v-2.3h-2Zm18.37,3h6.62v-2.3h-6.61Zm-7.29,0h6.61v-2.3h-6.61Zm-6.11,0h5.43v-2.3H171.8Zm-2.48,0h2v-2.3h-2Zm-2.5,0h2v-2.3h-2Zm18.38,2.95h6.61v-2.3h-6.61Zm-7.3,0h6.61v-2.3h-6.61Zm-6.11,0h5.43v-2.3H171.8Zm-2.48,0h2v-2.3h-2Zm-2.49,0h2v-2.3h-2Zm18.38,3h6.61v-2.3H185.2Zm-7.3,0h6.61v-2.3h-6.61Zm-6.11,0h5.43v-2.3H171.8Zm-2.48,0h2v-2.3h-2Zm-2.49,0h2v-2.3h-2Zm18.37,3h6.61v-2.3H185.2Zm-7.3,0h6.61v-2.3H177.9Zm-6.11,0h5.43v-2.3h-5.43Zm-2.48,0h2v-2.3h-2Zm-2.49,0h2v-2.3h-2Zm18.37,3h6.61v-2.3h-6.61Zm-7.29,0h6.62v-2.3H177.9Zm-6.11,0h5.43v-2.3h-5.43Zm-2.48,0h2v-2.3h-2Zm-2.49,0h2v-2.3h-2Zm18.38,3h6.61v-2.3h-6.62Zm-7.3,0h6.61v-2.3H177.9Zm-6.11,0h5.43v-2.3h-5.43Zm-2.48,0h2v-2.3h-2Zm-2.49,0h2v-2.3h-2Zm18.37,3h6.62v-2.3h-6.61Zm-7.3,0h6.61v-2.3h-6.61Zm-6.11,0h5.43v-2.3h-5.43Zm-2.48,0h2v-2.3h-2Zm-2.49,0h2v-2.3h-2Zm18.38,2.95h6.61v-2.3h-6.61Zm-7.3,0h6.61V331h-6.61Zm-6.11,0h5.43V331h-5.43Zm-2.48,0h2V331h-2Zm-2.49,0h2V331h-2Zm18.37,2.95h6.61V334h-6.61Zm-7.3,0h6.61V334h-6.61Zm-6.11,0h5.42V334h-5.42Zm-2.48,0h2V334h-2Zm-2.49,0h2V334h-2Zm18.38,3h6.61v-2.3h-6.61Zm-7.3,0h6.61v-2.3h-6.61Zm-6.11,0h5.43v-2.3h-5.42Zm-2.48,0h2v-2.3h-2Zm-2.49,0h2v-2.3h-2Zm18.37,2.95h6.61v-2.3h-6.61Zm-7.3,0h6.61v-2.3h-6.62Zm-6.11,0h5.43v-2.3h-5.43Zm-2.48,0h2v-2.3h-2Zm-2.49,0h2v-2.3h-2Zm18.38,3h6.61v-2.3h-6.61Zm-7.29,0h6.61v-2.3h-6.61Zm-6.11,0h5.43v-2.3h-5.43Zm-2.48,0h2v-2.3h-2Zm-2.49,0h2v-2.3h-2Zm18.38,3h6.62v-2.3h-6.61Zm-7.29,0h6.61v-2.3h-6.61Zm-6.11,0h5.43v-2.3h-5.43Zm-2.48,0h2v-2.3h-2Zm-2.49,0h2v-2.3h-2Zm18.38,3h6.61v-2.3h-6.61Zm-7.3,0h6.61v-2.3h-6.61Zm-6.11,0h5.42v-2.3h-5.42Zm-2.48,0h2v-2.3h-2Zm-2.49,0h2v-2.3h-2Zm18.38,3h6.61v-2.3h-6.61Zm-7.3,0h6.62v-2.3h-6.61Zm-6.11,0h5.43v-2.3h-5.43Zm-2.48,0h2v-2.3h-2Zm-2.49,0h2v-2.3h-2Zm18.38,3h6.62v-2.3h-6.62Zm-7.29,0h6.61v-2.3h-6.61Zm-6.11,0h5.43v-2.3h-5.42Zm-2.48,0h2v-2.3h-2Zm-2.49,0h2v-2.3h-2Zm18.38,3h6.61v-2.3h-6.61Zm-7.3,0h6.61v-2.3h-6.61Zm-6.11,0h5.43v-2.3h-5.43Zm-2.48,0h2v-2.3h-2Zm-2.49,0h2v-2.3h-2Zm18.37,3h6.62v-2.3h-6.61Zm-7.29,0h6.61v-2.3h-6.61Zm-6.11,0h5.43v-2.3h-5.43Zm-2.48,0h2v-2.3h-2Zm-2.5,0h2v-2.3h-2Zm18.38,3h6.62v-2.3h-6.61Zm-7.29,0h6.61v-2.3h-6.61Zm-6.11,0h5.43v-2.3h-5.42Zm-2.48,0h2v-2.3h-2Zm-2.49,0h2v-2.3h-2Zm18.38,3h6.61v-2.3h-6.61Zm-7.29,0h6.61v-2.3h-6.62Zm-6.11,0h5.43v-2.3h-5.43Zm-2.49,0h2v-2.3h-2Zm-2.49,0h2v-2.3h-2Zm18.38,2.95h6.61v-2.3h-6.61Zm-7.3,0h6.61v-2.3h-6.62Zm-6.11,0h5.43v-2.3h-5.43Zm-2.48,0h2v-2.3h-2Zm-2.49,0h2v-2.3h-2Zm18.38,2.95h6.61v-2.3h-6.61Zm-7.3,0h6.61v-2.3h-6.61Zm-6.11,0h5.43v-2.3h-5.43Zm-2.48,0h2V372h-2Zm-2.49,0h2V372h-2Zm18.37,3h6.62V375h-6.61Zm-7.29,0h6.61V375h-6.61Zm-6.11,0h5.43V375h-5.43Zm-2.48,0h2V375h-2Zm-2.49,0h2V375h-2Zm18.38,3h6.61v-2.3h-6.61Zm-7.3,0h6.61v-2.3h-6.61Zm-6.11,0h5.42v-2.3h-5.43Zm-2.48,0h2v-2.3h-2Zm-2.49,0h2v-2.3h-2Zm18.38,3h6.61v-2.3h-6.61Zm-7.3,0h6.62v-2.3h-6.61Zm-6.11,0h5.43v-2.3h-5.43Zm-2.48,0h2v-2.31h-2Zm-2.49,0h2v-2.3h-2Z" fill="url(#linear-gradient)" style="mix-blend-mode:multiply"/></g></g></g></mask><linearGradient id="linear-gradient-26" x1="180.31" y1="391.96" x2="180.31" y2="313" gradientTransform="translate(-7.79 -5.02) rotate(-1.11)" gradientUnits="userSpaceOnUse"><stop offset="0" stop-color="#fff"/><stop offset="0.98" stop-color="#fff"/></linearGradient><linearGradient id="linear-gradient-27" x1="160.31" y1="322.11" x2="160.31" y2="241.32" gradientTransform="matrix(0, 1, -1, 0, 472.18, 183.81)" xlink:href="#linear-gradient-23"/><linearGradient id="linear-gradient-28" x1="138.51" y1="322.71" x2="138.51" y2="241.33" gradientTransform="translate(450.69 205.91) rotate(89.97)" xlink:href="#linear-gradient-22"/><linearGradient id="linear-gradient-29" x1="473.99" y1="404.93" x2="473.99" y2="301.36" xlink:href="#linear-gradient-20"/><linearGradient id="linear-gradient-30" x1="473.99" y1="351.13" x2="473.99" y2="293.8" gradientUnits="userSpaceOnUse"><stop offset="0" stop-color="#0a0a0a"/><stop offset="1" stop-color="#fff"/></linearGradient><linearGradient id="linear-gradient-31" x1="338.26" y1="191.91" x2="338.26" y2="165.86" xlink:href="#linear-gradient-23"/><linearGradient id="linear-gradient-32" x1="457.5" y1="404.93" x2="457.5" y2="301.37" gradientTransform="matrix(-1, 0, 0, 1, 924.66, 0)" xlink:href="#linear-gradient-22"/><linearGradient id="linear-gradient-33" x1="199.23" y1="249.79" x2="199.23" y2="102.21" xlink:href="#linear-gradient-20"/><linearGradient id="linear-gradient-34" x1="319.31" y1="308.99" x2="350.64" y2="308.99" xlink:href="#linear-gradient-23"/><linearGradient id="linear-gradient-35" x1="199.23" y1="102.21" x2="199.23" y2="75.63" gradientUnits="userSpaceOnUse"><stop offset="0" stop-color="#e8e8e8"/><stop offset="0.12" stop-color="#cdcdcd"/><stop offset="0.43" stop-color="#919191"/><stop offset="0.68" stop-color="#656565"/><stop offset="0.88" stop-color="#4a4a4a"/><stop offset="1" stop-color="#404040"/></linearGradient><linearGradient id="linear-gradient-36" x1="191.26" y1="249.78" x2="191.26" y2="102.2" gradientUnits="userSpaceOnUse"><stop offset="0" stop-color="#ececec"/><stop offset="0.52" stop-color="#dbdbdb"/><stop offset="0.98" stop-color="#d1d1d1"/></linearGradient><linearGradient id="linear-gradient-37" x1="207.21" y1="249.78" x2="207.21" y2="102.2" xlink:href="#linear-gradient-23"/><linearGradient id="linear-gradient-38" x1="467.76" y1="297.22" x2="480.23" y2="297.22" gradientUnits="userSpaceOnUse"><stop offset="0" stop-color="#bebebe"/><stop offset="0.09" stop-color="#bbb"/><stop offset="0.98" stop-color="#a4a4a4"/></linearGradient><linearGradient id="linear-gradient-39" x1="409" y1="385.29" x2="409" y2="272.7" xlink:href="#linear-gradient-20"/><linearGradient id="linear-gradient-40" x1="399.62" y1="385.25" x2="399.62" y2="272.69" xlink:href="#linear-gradient-22"/><linearGradient id="linear-gradient-41" x1="403.22" y1="385.25" x2="403.22" y2="272.69" gradientTransform="matrix(-1, 0, 0, 1, 821.6, 0)" xlink:href="#linear-gradient-23"/><linearGradient id="linear-gradient-42" x1="276.29" y1="139.29" x2="276.29" y2="136.62" gradientUnits="userSpaceOnUse"><stop offset="0" stop-color="#f4f4f4"/><stop offset="1" stop-color="#f4f4f4"/></linearGradient><linearGradient id="linear-gradient-43" x1="410.18" y1="275.11" x2="410.18" y2="272.12" xlink:href="#linear-gradient-22"/><linearGradient id="linear-gradient-44" x1="406.48" y1="385.29" x2="406.48" y2="280.11" xlink:href="#linear-gradient-23"/><linearGradient id="linear-gradient-45" x1="160.05" y1="270.39" x2="160.05" y2="169.3" xlink:href="#linear-gradient-20"/><linearGradient id="linear-gradient-46" x1="294.09" y1="406.74" x2="294.09" y2="290.49" xlink:href="#linear-gradient-42"/><linearGradient id="linear-gradient-47" x1="298.09" y1="405.89" x2="298.09" y2="304.81" xlink:href="#linear-gradient-22"/><linearGradient id="linear-gradient-48" x1="145.13" y1="270.27" x2="145.13" y2="169.8" xlink:href="#linear-gradient-22"/><linearGradient id="linear-gradient-49" x1="238.69" y1="188.41" x2="238.69" y2="176.81" gradientUnits="userSpaceOnUse"><stop offset="0" stop-color="#f4f4f4"/><stop offset="1" stop-color="#fff"/></linearGradient><linearGradient id="linear-gradient-50" x1="238.69" y1="251.51" x2="238.69" y2="188.41" xlink:href="#linear-gradient-20"/><linearGradient id="linear-gradient-51" x1="351.51" y1="372.62" x2="397.37" y2="326.76" xlink:href="#linear-gradient-30"/><linearGradient id="linear-gradient-52" x1="249.85" y1="251.51" x2="249.85" y2="189.12" xlink:href="#linear-gradient-20"/><linearGradient id="linear-gradient-53" x1="227.58" y1="251.51" x2="227.58" y2="189.12" xlink:href="#linear-gradient-20"/><linearGradient id="linear-gradient-54" x1="374.44" y1="385.15" x2="374.44" y2="329.93" xlink:href="#linear-gradient-38"/><linearGradient id="linear-gradient-55" x1="249.85" y1="190.58" x2="249.85" y2="189.12" xlink:href="#linear-gradient-38"/><linearGradient id="linear-gradient-56" x1="227.78" y1="251.51" x2="227.78" y2="183.24" xlink:href="#linear-gradient-22"/><linearGradient id="linear-gradient-57" x1="232.11" y1="183.25" x2="232.11" y2="176.81" xlink:href="#linear-gradient-22"/><linearGradient id="linear-gradient-58" x1="85.28" y1="249.78" x2="85.28" y2="180.85" xlink:href="#linear-gradient-20"/><linearGradient id="linear-gradient-59" x1="220.14" y1="385.29" x2="220.14" y2="280.68" xlink:href="#linear-gradient-42"/><linearGradient id="linear-gradient-60" x1="221.41" y1="385.29" x2="221.41" y2="316.48" xlink:href="#linear-gradient-38"/><linearGradient id="linear-gradient-61" x1="441.85" y1="299.02" x2="441.85" y2="250.92" xlink:href="#linear-gradient-38"/><linearGradient id="linear-gradient-62" x1="442.24" y1="391.96" x2="442.24" y2="250.92" gradientUnits="userSpaceOnUse"><stop offset="0" stop-color="gray"/><stop offset="1" stop-color="#fff"/></linearGradient><linearGradient id="linear-gradient-63" x1="443.19" y1="383.3" x2="443.19" y2="302.01" xlink:href="#linear-gradient-20"/><linearGradient id="linear-gradient-64" x1="434.49" y1="295.62" x2="449.21" y2="295.62" xlink:href="#linear-gradient-20"/><linearGradient id="linear-gradient-65" x1="443.19" y1="383.3" x2="443.19" y2="302.01" xlink:href="#linear-gradient-38"/><mask id="mask-7" x="205.51" y="99.82" width="6.84" height="42.37" maskUnits="userSpaceOnUse"><g transform="translate(-135.74 -135.5)"><g mask="url(#mask-2)"><ellipse cx="344.67" cy="256.5" rx="21.24" ry="3.04" transform="translate(63.34 581.22) rotate(-85.75)" fill="url(#radial-gradient)" style="mix-blend-mode:multiply"/></g></g></mask><radialGradient id="radial-gradient-5" cx="489.19" cy="486.77" r="16.03" gradientTransform="matrix(-1.33, 0, 0, -0.19, 992.85, 348.97)" gradientUnits="userSpaceOnUse"><stop offset="0" stop-color="#f9f9f9"/><stop offset="0.14" stop-color="#fafafa"/><stop offset="1" stop-color="#fff"/></radialGradient><mask id="mask-8" x="119.62" y="125.93" width="7.84" height="15.21" maskUnits="userSpaceOnUse"><g transform="translate(-135.74 -135.5)"><g mask="url(#mask-3)"><ellipse cx="259.28" cy="269.04" rx="7.61" ry="3.92" transform="matrix(0, -1, 1, 0, -11.03, 526.99)" fill="url(#radial-gradient-2)" style="mix-blend-mode:multiply"/></g></g></mask><radialGradient id="radial-gradient-6" cx="447.62" cy="916.43" r="20.64" gradientTransform="matrix(-0.37, 0, 0, -0.19, 424.26, 443.07)" xlink:href="#radial-gradient-5"/><mask id="mask-9" x="276.46" y="131.78" width="7.49" height="33.62" maskUnits="userSpaceOnUse"><g transform="translate(-135.74 -135.5)"><g mask="url(#mask-4)"><ellipse cx="415.95" cy="284.09" rx="17.05" ry="2.44" transform="translate(65.97 646.36) rotate(-80.32)" fill="url(#radial-gradient-3)" style="mix-blend-mode:multiply"/></g></g></mask><radialGradient id="radial-gradient-7" cx="508.78" cy="106.51" r="12.87" gradientTransform="matrix(-1.32, 0, 0, -0.19, 1090.07, 304.34)" xlink:href="#radial-gradient-5"/><mask id="mask-10" x="329.67" y="163.04" width="26.73" height="5.65" maskUnits="userSpaceOnUse"><g transform="translate(-135.74 -135.5)"><g mask="url(#mask-5)"><ellipse cx="478.77" cy="301.36" rx="13.37" ry="2.82" transform="matrix(1, -0.01, 0.01, 1, -2.35, 3.76)" fill="url(#radial-gradient-4)" style="mix-blend-mode:multiply"/></g></g></mask><radialGradient id="radial-gradient-8" cx="745.15" cy="-414.93" r="53.68" gradientTransform="matrix(-0.25, 0, 0, -0.05, 664.33, 279.58)" gradientUnits="userSpaceOnUse"><stop offset="0" stop-color="#fff"/><stop offset="1" stop-color="#fff"/></radialGradient><radialGradient id="radial-gradient-9" cx="267.53" cy="80.76" r="27.74" gradientTransform="translate(-335.35 269.16) scale(1.71 0.32)" gradientUnits="userSpaceOnUse"><stop offset="0"/><stop offset="1" stop-color="#fff" stop-opacity="0"/></radialGradient><radialGradient id="radial-gradient-10" cx="352.82" cy="80.76" r="27.74" xlink:href="#radial-gradient-9"/><clipPath id="clip-path" transform="translate(-135.74 -135.5)"><path id="_Compound_Clipping_Path_" data-name="&lt;Compound Clipping Path&gt;" d="M403.28,355.48a34.22,34.22,0,1,1-34.22,34.22,34.26,34.26,0,0,1,34.22-34.22m0-6.52A40.74,40.74,0,1,0,444,389.7,40.74,40.74,0,0,0,403.28,349Z" fill="url(#linear-gradient-2)"/></clipPath><clipPath id="clip-path-2" transform="translate(-135.74 -135.5)"><polygon points="449.61 391.62 421.21 375.03 396.07 391.62 349.05 391.62 382.11 340.73 441.93 344.54 449.61 391.62" fill="none"/></clipPath><clipPath id="clip-path-4" transform="translate(-135.74 -135.5)"><path id="_Compound_Clipping_Path_2" data-name="&lt;Compound Clipping Path&gt;" d="M255.48,355.48a34.22,34.22,0,1,1-34.22,34.22,34.26,34.26,0,0,1,34.22-34.22m0-6.52a40.74,40.74,0,1,0,40.74,40.74A40.74,40.74,0,0,0,255.48,349Z" fill="url(#linear-gradient-4)"/></clipPath><clipPath id="clip-path-5" transform="translate(-135.74 -135.5)"><polygon points="259.67 344.54 259.67 389.69 300.94 389.7 298.08 371.56 283.65 350.9 259.67 344.54" fill="none"/></clipPath><clipPath id="clip-path-7" transform="translate(-135.74 -135.5)"><polygon points="400.65 385.6 396.92 389.69 362.39 355.25 365.59 352.89 400.65 385.6" fill="none"/></clipPath><clipPath id="clip-path-8" transform="translate(-135.74 -135.5)"><polygon points="278.67 341.59 287.22 318.7 409.88 384.04 407.94 394.5 312.2 395.9 278.67 341.59" fill="none"/></clipPath><clipPath id="clip-path-9" transform="translate(-135.74 -135.5)"><path d="M282.25,346.28l3.3-7.42,20.9,33A39,39,0,0,0,339.19,390l61.86.33a8.67,8.67,0,0,0,5.8-2.19l4.21-3.74V394.5l-98.87,1.4Z" fill="none"/></clipPath><clipPath id="clip-path-10" transform="translate(-135.74 -135.5)"><path id="_Clipping_Path_" data-name="&lt;Clipping Path&gt;" d="M329.53,390.58a12.92,12.92,0,0,0,23.81,6.08A16.93,16.93,0,0,1,366.56,389l33-2.22-10.71-9.94h-46.4A12.92,12.92,0,0,0,329.53,390.58Z" fill="url(#linear-gradient-3)"/></clipPath><linearGradient id="linear-gradient-69" x1="300.61" y1="288.82" x2="292.54" y2="268.3" gradientUnits="userSpaceOnUse"><stop offset="0.26"/><stop offset="1" stop-color="gray"/></linearGradient><linearGradient id="linear-gradient-70" x1="368.62" y1="320.37" x2="368.62" y2="287.38" xlink:href="#linear-gradient-69"/></defs><title>filling-in-gaps</title><g style="isolation:isolate"><g id="Layer_1" data-name="Layer 1"><polygon points="371.19 241.24 371.19 222.84 361.68 222.84 361.68 202.97 316.05 202.97 316.05 210.47 299.51 210.47 299.51 170.12 281.63 170.12 281.63 228.72 271.07 228.72 271.07 187.07 260.3 187.07 260.3 203.2 232.72 203.2 232.72 168.58 216.18 168.58 216.18 201.6 194.72 201.6 194.72 167.5 177.97 167.5 177.97 208.42 156.58 208.42 156.58 224.91 151.54 224.91 151.54 164.79 141.21 164.79 141.21 186.34 135.27 190.47 135.27 214.97 128.5 214.97 128.5 182.22 106.44 182.22 106.44 192.17 90.89 192.17 90.89 214.48 85.12 214.48 85.12 187.32 72.33 187.32 72.33 208.42 64.56 208.42 64.56 196.05 54.28 196.05 54.28 219.45 50.39 219.45 50.39 205.99 30.71 205.99 30.71 203.45 26.82 203.45 26.82 202.13 24.19 202.13 24.19 204.05 22.31 204.05 22.31 207.39 20.29 207.39 20.29 221.54 12.26 221.54 12.26 234.35 5.13 241.24 5.13 251.78 378.55 251.78 378.55 241.24 371.19 241.24" fill="url(#linear-gradient-5)"/><g opacity="0.58" style="mix-blend-mode:multiply"><rect x="177.97" y="167.5" width="3.34" height="84.29" fill="url(#linear-gradient-6)"/><rect x="156.58" y="208.42" width="7.82" height="43.37" fill="url(#linear-gradient-7)"/><polygon points="144.65 164.8 144.65 251.78 135.27 251.78 135.27 190.47 141.21 186.34 141.21 164.8 144.65 164.8" fill="url(#linear-gradient-8)"/><rect x="106.44" y="182.23" width="4.48" height="69.56" fill="url(#linear-gradient-9)"/><rect x="90.89" y="192.17" width="3.06" height="59.61" fill="url(#linear-gradient-10)"/><rect x="72.33" y="187.32" width="3.35" height="64.47" fill="url(#linear-gradient-11)"/><rect x="54.28" y="196.05" width="3.58" height="55.73" fill="url(#linear-gradient-12)"/><polygon points="31.87 206 31.87 251.78 20.16 251.78 12.26 249.79 12.26 221.54 20.16 221.54 20.29 221.54 20.29 207.39 22.31 207.39 22.31 204.06 24.19 204.06 24.19 202.13 26.82 202.13 26.82 203.45 30.71 203.45 30.71 206 31.87 206" fill="url(#linear-gradient-13)"/><polygon points="5.14 251.78 12.26 251.78 12.26 234.35 5.14 241.25 5.14 251.78" fill="url(#linear-gradient-14)"/><polygon points="194.72 213.55 194.72 251.78 198.35 251.78 198.35 234.39 205.45 234.39 205.45 251.78 216.18 251.78 216.18 213.55 216.18 201.6 194.72 201.6 194.72 213.55" fill="url(#linear-gradient-15)"/><polygon points="232.72 203.2 232.72 225.37 232.72 251.78 238.52 251.78 238.52 225.37 260.3 225.37 260.3 203.2 238.52 203.2 232.72 203.2" fill="url(#linear-gradient-16)"/><rect x="270.95" y="228.72" width="10.68" height="23.06" fill="url(#linear-gradient-17)"/><polygon points="299.51 210.47 299.51 228.72 312.2 228.72 312.2 251.78 316.05 251.78 316.05 228.72 316.05 210.47 312.2 210.47 299.51 210.47" fill="url(#linear-gradient-18)"/><rect x="339.48" y="210.47" width="5.16" height="41.32" fill="url(#linear-gradient-19)"/></g><path d="M262.55,331A580.41,580.41,0,0,0,267,268.81H243.17a516.26,516.26,0,0,0,4.64,62.56h0a425.46,425.46,0,0,0-.94,53.9H273.6s-6.84-17-11-54.21Z" transform="translate(-135.74 -135.5)" fill="url(#linear-gradient-20)"/><path d="M267,268.81A580.61,580.61,0,0,1,262.55,331a555.6,555.6,0,0,1-3.24-62.23Z" transform="translate(-135.74 -135.5)" opacity="0.53" fill="url(#linear-gradient-21)"/><path d="M259.47,385.28h-12.6a425.45,425.45,0,0,1,.94-53.9C250.21,349,253.89,368.12,259.47,385.28Z" transform="translate(-135.74 -135.5)" opacity="0.73" fill="url(#linear-gradient-22)" style="mix-blend-mode:multiply"/><path d="M259.7,291.32,245,306c-.28-3.34-.52-6.54-.73-9.56h0l15.14-15.14Q259.53,286.44,259.7,291.32Zm.38,9-14.27,14.27q.27,2.65.58,5.38l14-14C260.29,304.08,260.18,302.2,260.08,300.28ZM256.6,268.8l-13.1,13.1c0,.89.08,1.81.12,2.78L259.31,269v-.19Zm6,62.27v0c-.15-1.33-.3-2.69-.44-4.07l-13,13c.54,3.49,1.15,7,1.8,10.56L263.4,338C263.11,335.8,262.82,333.48,262.55,331.07ZM264.23,344,252,356.23c.23,1.12.46,2.22.7,3.33l12.08-12.08C264.58,346.34,264.4,345.18,264.23,344Z" transform="translate(-135.74 -135.5)" opacity="0.3" fill="url(#linear-gradient-23)"/><rect x="142.04" y="331.72" width="83.91" height="23.19" transform="translate(-295.28 391.42) rotate(-89.93)" fill="url(#linear-gradient-24)"/><rect x="138.73" y="331.43" width="81.37" height="26.31" transform="translate(-301.1 388.12) rotate(-89.94)" fill="url(#linear-gradient-25)"/><g mask="url(#mask-6)"><path d="M185.21,304.68h6.61V307h-6.61Zm-7.3,2.29h6.61v-2.3h-6.61Zm-6.11,0h5.43v-2.3h-5.43Zm-2.48,0h2v-2.3h-2Zm-2.49,0h2v-2.3h-2Zm18.38,2.95h6.61v-2.3h-6.61Zm-7.3,0h6.61v-2.3h-6.61Zm-6.11,0h5.43v-2.3h-5.42Zm-2.48,0h2v-2.3h-2Zm-2.49,0h2v-2.3h-2Zm18.37,3h6.62v-2.3h-6.61Zm-7.29,0h6.61v-2.3h-6.61Zm-6.11,0h5.43v-2.3H171.8Zm-2.48,0h2v-2.3h-2Zm-2.5,0h2v-2.3h-2Zm18.38,2.95h6.61v-2.3h-6.61Zm-7.3,0h6.61v-2.3h-6.61Zm-6.11,0h5.43v-2.3H171.8Zm-2.48,0h2v-2.3h-2Zm-2.49,0h2v-2.3h-2Zm18.38,3h6.61v-2.3H185.2Zm-7.3,0h6.61v-2.3h-6.61Zm-6.11,0h5.43v-2.3H171.8Zm-2.48,0h2v-2.3h-2Zm-2.49,0h2v-2.3h-2Zm18.37,3h6.61v-2.3H185.2Zm-7.3,0h6.61v-2.3H177.9Zm-6.11,0h5.43v-2.3h-5.43Zm-2.48,0h2v-2.3h-2Zm-2.49,0h2v-2.3h-2Zm18.37,3h6.61v-2.3h-6.61Zm-7.29,0h6.62v-2.3H177.9Zm-6.11,0h5.43v-2.3h-5.43Zm-2.48,0h2v-2.3h-2Zm-2.49,0h2v-2.3h-2Zm18.38,3h6.61v-2.3h-6.62Zm-7.3,0h6.61v-2.3H177.9Zm-6.11,0h5.43v-2.3h-5.43Zm-2.48,0h2v-2.3h-2Zm-2.49,0h2v-2.3h-2Zm18.37,3h6.62v-2.3h-6.61Zm-7.3,0h6.61v-2.3h-6.61Zm-6.11,0h5.43v-2.3h-5.43Zm-2.48,0h2v-2.3h-2Zm-2.49,0h2v-2.3h-2Zm18.38,2.95h6.61v-2.3h-6.61Zm-7.3,0h6.61V331h-6.61Zm-6.11,0h5.43V331h-5.43Zm-2.48,0h2V331h-2Zm-2.49,0h2V331h-2Zm18.37,2.95h6.61V334h-6.61Zm-7.3,0h6.61V334h-6.61Zm-6.11,0h5.42V334h-5.42Zm-2.48,0h2V334h-2Zm-2.49,0h2V334h-2Zm18.38,3h6.61v-2.3h-6.61Zm-7.3,0h6.61v-2.3h-6.61Zm-6.11,0h5.43v-2.3h-5.42Zm-2.48,0h2v-2.3h-2Zm-2.49,0h2v-2.3h-2Zm18.37,2.95h6.61v-2.3h-6.61Zm-7.3,0h6.61v-2.3h-6.62Zm-6.11,0h5.43v-2.3h-5.43Zm-2.48,0h2v-2.3h-2Zm-2.49,0h2v-2.3h-2Zm18.38,3h6.61v-2.3h-6.61Zm-7.29,0h6.61v-2.3h-6.61Zm-6.11,0h5.43v-2.3h-5.43Zm-2.48,0h2v-2.3h-2Zm-2.49,0h2v-2.3h-2Zm18.38,3h6.62v-2.3h-6.61Zm-7.29,0h6.61v-2.3h-6.61Zm-6.11,0h5.43v-2.3h-5.43Zm-2.48,0h2v-2.3h-2Zm-2.49,0h2v-2.3h-2Zm18.38,3h6.61v-2.3h-6.61Zm-7.3,0h6.61v-2.3h-6.61Zm-6.11,0h5.42v-2.3h-5.42Zm-2.48,0h2v-2.3h-2Zm-2.49,0h2v-2.3h-2Zm18.38,3h6.61v-2.3h-6.61Zm-7.3,0h6.62v-2.3h-6.61Zm-6.11,0h5.43v-2.3h-5.43Zm-2.48,0h2v-2.3h-2Zm-2.49,0h2v-2.3h-2Zm18.38,3h6.62v-2.3h-6.62Zm-7.29,0h6.61v-2.3h-6.61Zm-6.11,0h5.43v-2.3h-5.42Zm-2.48,0h2v-2.3h-2Zm-2.49,0h2v-2.3h-2Zm18.38,3h6.61v-2.3h-6.61Zm-7.3,0h6.61v-2.3h-6.61Zm-6.11,0h5.43v-2.3h-5.43Zm-2.48,0h2v-2.3h-2Zm-2.49,0h2v-2.3h-2Zm18.37,3h6.62v-2.3h-6.61Zm-7.29,0h6.61v-2.3h-6.61Zm-6.11,0h5.43v-2.3h-5.43Zm-2.48,0h2v-2.3h-2Zm-2.5,0h2v-2.3h-2Zm18.38,3h6.62v-2.3h-6.61Zm-7.29,0h6.61v-2.3h-6.61Zm-6.11,0h5.43v-2.3h-5.42Zm-2.48,0h2v-2.3h-2Zm-2.49,0h2v-2.3h-2Zm18.38,3h6.61v-2.3h-6.61Zm-7.29,0h6.61v-2.3h-6.62Zm-6.11,0h5.43v-2.3h-5.43Zm-2.49,0h2v-2.3h-2Zm-2.49,0h2v-2.3h-2Zm18.38,2.95h6.61v-2.3h-6.61Zm-7.3,0h6.61v-2.3h-6.62Zm-6.11,0h5.43v-2.3h-5.43Zm-2.48,0h2v-2.3h-2Zm-2.49,0h2v-2.3h-2Zm18.38,2.95h6.61v-2.3h-6.61Zm-7.3,0h6.61v-2.3h-6.61Zm-6.11,0h5.43v-2.3h-5.43Zm-2.48,0h2V372h-2Zm-2.49,0h2V372h-2Zm18.37,3h6.62V375h-6.61Zm-7.29,0h6.61V375h-6.61Zm-6.11,0h5.43V375h-5.43Zm-2.48,0h2V375h-2Zm-2.49,0h2V375h-2Zm18.38,3h6.61v-2.3h-6.61Zm-7.3,0h6.61v-2.3h-6.61Zm-6.11,0h5.42v-2.3h-5.43Zm-2.48,0h2v-2.3h-2Zm-2.49,0h2v-2.3h-2Zm18.38,3h6.61v-2.3h-6.61Zm-7.3,0h6.62v-2.3h-6.61Zm-6.11,0h5.43v-2.3h-5.43Zm-2.48,0h2v-2.31h-2Zm-2.49,0h2v-2.3h-2Z" transform="translate(-135.74 -135.5)" opacity="0.25" fill="url(#linear-gradient-26)"/></g><rect x="150.17" y="342.29" width="80.79" height="4.03" transform="translate(-289.83 398.73) rotate(-89.89)" opacity="0.53" fill="url(#linear-gradient-27)"/><rect x="128.07" y="342.08" width="81.37" height="4.99" transform="translate(-311.86 377.22) rotate(-89.9)" fill="url(#linear-gradient-28)" style="mix-blend-mode:multiply"/><path d="M462.13,385.29h23.72a287.14,287.14,0,0,0-2.91-83.91H465a287.29,287.29,0,0,0-2.91,83.92Z" transform="translate(-135.74 -135.5)" fill="url(#linear-gradient-29)"/><path d="M481.21,293.8H466.78c-.68,2.49-1.25,5-1.74,7.57h17.91C482.46,298.82,481.87,296.3,481.21,293.8Zm-13.45,5.35c.23-1.06.48-2.11.74-3.13h11c.27,1,.51,2.07.74,3.13Z" transform="translate(-135.74 -135.5)" fill="url(#linear-gradient-30)"/><polygon points="329.3 165.86 338.25 191.91 347.21 165.86 329.3 165.86" opacity="0.53" fill="url(#linear-gradient-31)"/><path d="M474,385.29V327.41l-9-26a287.27,287.27,0,0,0-2.91,83.92Z" transform="translate(-135.74 -135.5)" opacity="0.74" fill="url(#linear-gradient-32)" style="mix-blend-mode:multiply"/><polygon points="199.23 102.21 188.19 102.21 183.28 249.79 199.23 249.79 215.18 249.79 210.27 102.21 199.23 102.21" fill="url(#linear-gradient-33)"/><path d="M346.2,243.31H323.75l.07-2h22.31Zm.12,3.76h-22.7l-.07,2h22.84Zm.19,5.8H323.43l-.07,2h23.23Zm.19,5.8H323.24l-.07,2h23.61Zm.19,5.8H323l-.07,2h24Zm.19,5.8H322.85l-.07,2h24.39Zm.19,5.8H322.66l-.07,2h24.77Zm.19,5.8h-25l-.07,2h25.16Zm.19,5.8h-25.4l0,1,0,1h25.55Zm.19,5.8H322.08l-.06,2h25.92Zm.19,5.8H321.89l-.06,2h26.31Zm.19,5.8H321.69l-.06,2h26.69Zm.19,5.8h-27l-.06,2h27.08Zm.19,5.8H321.31l-.06,2h27.47Zm.19,5.8H321.11l-.06,2H348.9Zm.19,5.8H320.92l-.06,2h28.24Zm.19,5.8h-28.5l-.06,2h28.63Zm.19,5.8H320.54l-.07,2h29Zm.19,5.8H320.35l-.07,2h29.4Zm.19,5.8H320.15l-.07,2h29.79Zm.19,5.8H320l-.07,2h30.17Zm.19,5.8H319.77l-.07,2h30.56Zm.19,5.8h-30.8l-.07,2h30.95Zm0,0h-30.8l-.07,2h30.95Zm.19,5.8H319.38l-.07,2h31.33Z" transform="translate(-135.74 -135.5)" opacity="0.34" fill="url(#linear-gradient-34)"/><polygon points="206.62 100.43 206.62 98.66 204.55 98.66 204.55 96.88 200.05 96.88 199.51 75.63 199.23 75.63 198.97 75.63 198.7 75.63 198.16 96.88 193.92 96.88 193.92 98.66 191.85 98.66 191.85 100.43 189.86 100.43 189.86 102.21 208.6 102.21 208.6 100.43 206.62 100.43" fill="url(#linear-gradient-35)"/><polygon points="188.19 102.2 199.23 249.78 183.28 249.78 188.19 102.2" fill="url(#linear-gradient-36)" style="mix-blend-mode:multiply"/><polygon points="215.18 249.78 199.23 249.78 210.27 102.2 215.18 249.78" opacity="0.53" fill="url(#linear-gradient-37)"/><path d="M480.23,299.15c-.23-1.06-.47-2.1-.74-3.13h-11c-.26,1-.52,2.07-.74,3.13l.4-3.87h11.71Z" transform="translate(-135.74 -135.5)" fill="url(#linear-gradient-38)" style="mix-blend-mode:multiply"/><path d="M423.63,385.29H394.37v-.05h0c.27-1.49,11.36-63,5-112.55a.17.17,0,0,0,0,.06.12.12,0,0,0,0-.05h19.25c-.09.7-.17,1.39-.26,2.09l0,.32C412.54,324.79,423.63,385.29,423.63,385.29Z" transform="translate(-135.74 -135.5)" fill="url(#linear-gradient-39)"/><path d="M394.39,385.25c.27-1.49,11.36-63,5-112.55C413.95,323.37,394.89,383.69,394.39,385.25Z" transform="translate(-135.74 -135.5)" fill="url(#linear-gradient-40)" style="mix-blend-mode:multiply"/><path d="M423.61,385.25c-.27-1.49-11.36-63-5-112.55C404.05,323.37,423.11,383.69,423.61,385.25Z" transform="translate(-135.74 -135.5)" opacity="0.53" fill="url(#linear-gradient-41)"/><polygon points="267.33 136.62 268.04 138.12 269.35 138.12 269.9 139.29 282.63 139.29 283.23 138.12 284.48 138.12 285.24 136.62 267.33 136.62" fill="url(#linear-gradient-42)"/><path d="M420.69,272.69l.29-.58H399.37v.45h3l.06.14.6,1.31h1.43l.52,1.1h13.3l0-.32H405.64l-.18-.39,13.51-.78H405.09l.11.24-.11-.24h-1.32l-.23-.49-.2-.43-.07-.15.27.58Z" transform="translate(-135.74 -135.5)" fill="url(#linear-gradient-43)" style="mix-blend-mode:multiply"/><path d="M418.58,365.39l-19.9,19.89h-4.29a2.23,2.23,0,0,0,.13-.47c.35-1.12,1.29-4.24,2.47-8.93l19.82-19.82C417.38,359.4,418,362.52,418.58,365.39Zm-15.06-72.09q.35,2.77.6,5.55l11.13-11.12h0q.63-3.83,1.47-7.62Zm.9,9.44c0,.64.08,1.28.12,1.92l9.71-9.71c.08-.77.18-1.54.28-2.31Zm.41,12.15c0,1.6,0,3.19,0,4.77l8.38-8.38c0-1.62.09-3.25.17-4.9Zm8.3,1.9-8.55,8.54c-.21,4.51-.55,8.91-1,13.13l9.94-9.94C413.31,324.71,413.17,320.78,413.14,316.8Zm1,19.4-11.7,11.69q-.27,1.93-.56,3.79l12.55-12.55C414.34,338.16,414.24,337.19,414.15,336.21Z" transform="translate(-135.74 -135.5)" opacity="0.3" fill="url(#linear-gradient-44)"/><rect x="149.84" y="169.3" width="20.41" height="82.21" fill="url(#linear-gradient-45)"/><path d="M306,301.1v9.7H295.63c.13-.7.25-1.28.35-1.78l.16-.73.09-.39c.05-.23.1-.42.14-.56l0-.09c0-.08,0-.14.05-.18a.08.08,0,0,1,0,0l0,0h7.16v-8.87l-12.32-7.63-2,1.23-1.15,5-8.45,8.58V387h10.48a.71.71,0,0,0,0-.11H306V387h2.47V301.1Zm0,83.77H290.26c0-.7,0-1.4.06-2.09s0-1.38.06-2.06H306Zm0-6.17H290.44c0-1.4.09-2.8.13-4.14H306Zm0-6.17H290.66c0-.7.05-1.4.08-2.09s0-1.38.08-2.05H306Zm0-6.17H290.9c.06-1.4.12-2.81.18-4.15H306Zm0-6.18H291.18c0-.35,0-.7,0-1s0-.52,0-.79c0-.79.08-1.56.12-2.31H306Zm0-6.17H291.5c.06-1.06.12-2.11.17-3.14,0-.34,0-.68.06-1H306Zm0-6.17H291.86c0-.36,0-.71.06-1.06.07-1.06.13-2.09.21-3.09H306Zm0-6.18H292.26c.11-1.44.21-2.81.3-4.15H306Zm0-6.17H292.73c.06-.73.12-1.44.18-2.13s.12-1.37.18-2H306Zm0-6.17H293.26c.14-1.47.28-2.84.42-4.15H306Zm0-6.17H293.9c.17-1.51.33-2.88.49-4.16H306Zm0-6.18H294.66c0-.2.05-.4.08-.59.05-.39.11-.76.16-1.12.13-.9.25-1.71.38-2.43H306Z" transform="translate(-135.74 -135.5)" fill="url(#linear-gradient-46)"/><path d="M303.64,304.81V307h-7.17v0a.08.08,0,0,0,0,0s0,.11-.05.18l0,.09c0,.14-.09.32-.14.56l-.09.39L296,309c-.11.49-.22,1.08-.35,1.78h1a31.25,31.25,0,0,1,.73-3.22h7.18v-2.78Zm-8.37,8c-.12.73-.25,1.54-.38,2.43-.05.36-.11.73-.16,1.12,0,.19-.05.39-.08.59h1c.19-1.35.36-2.53.53-3.55H306v-.6Zm-.89,6.16c-.16,1.27-.32,2.64-.49,4.16h1c.14-1.28.28-2.46.42-3.56H306V319Zm-.71,6.17h0c-.13,1.31-.28,2.68-.42,4.15h.94c.12-1.25.24-2.43.35-3.56H306v-.6Zm-.6,6.17q-.09,1-.18,2c-.06.7-.12,1.41-.18,2.13h.93c.1-1.24.21-2.42.3-3.56h12v-.6Zm-.52,6.17c-.1,1.34-.2,2.71-.3,4.15h.93c.09-1.23.18-2.4.26-3.55H306v-.6Zm-.45,6.17c-.07,1-.13,2-.2,3.09,0,.35,0,.7-.06,1.06h.92c.08-1.21.15-2.4.22-3.55h13v-.6Zm-.39,6.17c0,.33,0,.67-.06,1-.06,1-.12,2.08-.18,3.14h.91c.06-1.21.13-2.4.2-3.56H306v-.6Zm-.35,6.17c0,.76-.08,1.53-.11,2.32,0,.26,0,.52,0,.79l-.05,1h.91c.06-1.2.12-2.4.18-3.55H306V356Zm-.3,6.18c-.06,1.34-.12,2.75-.18,4.15h.91c.05-1.2.11-2.41.15-3.55h14v-.6Zm-.27,6.17c0,.67-.05,1.35-.08,2.05s-.06,1.4-.08,2.09h.9c0-1.2.09-2.4.13-3.55H306v-.6Zm-.23,6.17c0,1.35-.09,2.75-.13,4.14h.9c0-1.2.08-2.39.12-3.55H306v-.6Zm-.21,6.17c0,.68,0,1.37-.06,2.06s0,1.39-.06,2.09h.9c0-1.2.07-2.38.1-3.55H306v-.6Zm-.18,6.17V387H306v-.11Z" transform="translate(-135.74 -135.5)" fill="url(#linear-gradient-47)" style="mix-blend-mode:multiply"/><polygon points="146.3 251.5 143.97 251.5 143.97 169.8 146.3 251.5" fill="url(#linear-gradient-48)" style="mix-blend-mode:multiply"/><polygon points="248.62 180.27 248.62 188.41 228.76 188.41 228.76 180.27 231.97 180.27 231.97 176.81 245.43 176.81 245.43 180.27 248.62 180.27" fill="url(#linear-gradient-49)"/><rect x="235.66" y="188.41" width="6.06" height="63.1" fill="url(#linear-gradient-50)"/><path d="M377.47,318.74V328H371.4v-9.27H359.52v5.87h6.37V387h5.51v-2.82h6.07V387H383V324.62h6.36v-5.87Zm0,63.49H371.4v-4.84h6.07Zm0-6.75H371.4v-4.84h6.07Zm0-6.79H371.4v-4.83h6.07Zm0-6.79H371.4v-4.82h6.07Zm0-6.76H371.4v-4.82h6.07Zm0-6.78H371.4v-4.83h6.07Zm0-6.79H371.4v-4.83h6.07Zm0-6.76H371.4v-4.86h6.07Z" transform="translate(-135.74 -135.5)" fill="url(#linear-gradient-51)"/><rect x="247.25" y="189.12" width="5.2" height="62.39" fill="url(#linear-gradient-52)"/><rect x="225.01" y="189.12" width="5.14" height="62.39" fill="url(#linear-gradient-53)"/><path d="M371.41,329.93v1h6.06v-1Zm0,6.79v1h6.06v-1Zm0,6.79v1h6.06v-1Zm0,6.79v1h6.06v-1Zm0,6.75v1h6.06v-1Zm0,6.79v1h6.06v-1Zm0,6.78v1h6.06v-1Zm0,6.75v1h6.06v-1Zm0,6.79v1h6.06v-1Z" transform="translate(-135.74 -135.5)" fill="url(#linear-gradient-54)" style="mix-blend-mode:multiply"/><rect x="247.25" y="189.12" width="5.2" height="1.46" fill="url(#linear-gradient-55)" style="mix-blend-mode:multiply"/><polygon points="231.78 189.14 231.78 251.5 225.01 251.5 225.01 189.14 223.78 189.14 223.78 183.24 228.61 183.24 228.61 189.14 231.78 189.14" fill="url(#linear-gradient-56)" style="mix-blend-mode:multiply"/><polygon points="234.68 180.27 234.68 176.81 231.97 176.81 231.97 180.27 228.76 180.27 228.76 183.25 235.46 183.25 235.46 180.27 234.68 180.27" fill="url(#linear-gradient-57)" style="mix-blend-mode:multiply"/><polygon points="97.79 193.64 96.84 193.64 96.84 180.85 72.78 180.85 72.78 239.51 82.5 239.51 82.5 249.78 95.3 249.78 95.49 239.51 96.84 239.51 96.84 238.85 97.79 238.85 97.79 193.64" fill="url(#linear-gradient-58)"/><path d="M234.83,316.48v-35.8h-1.18l-.91,16.59-27.31,10.91v77.11h12.8v-4.83h11.85v4.83h4.74V374.35H209.29v-2.14h25.54v-1.1H209.29V369h25.54v-1.1H209.29v-2.12h25.54v-1.12H209.29V362.5h25.54v-1.11H209.29v-2.13h25.54v-1.1H209.29V356h25.54v-1.1H209.29v-2.14h25.54v-1.1H209.29v-2.14h25.54v-1.1H209.29v-2.14h25.54v-1.1H209.29v-2.13h25.54v-1.11H209.29v-2.13h25.54V338.7H209.29v-2.12h25.54v-1.1H209.29v-2.14h25.54v-1.1H209.29v-2.14h25.54v-3H228V316.48Zm-23.67,10.66h-1.88V316.48h1.88Zm3.6,0h-1.88V316.48h1.88Zm3.58,0h-1.88V316.48h1.88Zm3.6,0h-1.88V316.48H222Z" transform="translate(-135.74 -135.5)" fill="url(#linear-gradient-59)"/><path d="M211.17,316.48v.46h-.93v10.2h-.94V316.48Zm1.73,0v10.66h.94v-10.2h.93v-.46Zm3.58,0v10.66h.94v-10.2h.93v-.46Zm3.6,0v10.66H221v-10.2H222v-.46Zm-1.84,64v4.83h.94v-4.37h10.92v-.46Zm9.73-64v10.66h.94v-10.2h3.67v-.46ZM209.29,330.1v2.14h.94v-1.68h23.3v-.46Zm0,3.23v2.15h.94v-1.69h23.3v-.46Zm0,3.25v2.13h.94V337h23.3v-.46Zm0,3.24v2.13h.94v-1.67h23.3v-.46Zm0,3.24v2.13h.94v-1.67h23.3v-.46Zm0,3.22v2.15h.94v-1.69h23.3v-.46Zm0,3.25v2.14h.94V350h23.3v-.46Zm0,3.24v2.15h.94v-1.69h23.3v-.46Zm0,3.25v2.14h.94v-1.68h23.3V356Zm0,3.24v2.13h.94v-1.67h23.3v-.46Zm0,3.24v2.13h.94V363h23.3v-.46Zm0,3.24v2.13h.94V366.2h23.3v-.46Zm0,3.22v2.14h.94v-1.68h23.3V369Zm0,3.24v2.15h.94v-1.69h23.3v-.46Z" transform="translate(-135.74 -135.5)" fill="url(#linear-gradient-60)" style="mix-blend-mode:multiply"/><path d="M451.17,290.82V299H432.52v-8.2c0-9.71,9.71-14.22,9.71-14.22h1.14l1.11-18.32.12-2,.08-1.29.12-2,.13-2.09h.75V276.6h1.92v9.67h3.26V288h-1.65v2.8Z" transform="translate(-135.74 -135.5)" opacity="0.24" fill="url(#linear-gradient-61)" style="mix-blend-mode:multiply"/><path d="M453.88,299v86.27H430.6V299h1.92v-8.2c0-9.71,9.71-14.22,9.71-14.22h1.14l1.11-18.32.12-2,.08-1.29.12-2,.13-2.09h.75V276.6h1.92v14.22h3.57V299Z" transform="translate(-135.74 -135.5)" fill="url(#linear-gradient-62)"/><path d="M434.72,381.17c0,.71,0,1.41,0,2.13h17v-2.13Zm0-4c0,.71,0,1.41,0,2.12h16.93v-2.12Zm.05-4c0,.71,0,1.41,0,2.12h16.88v-2.12Zm.09-4-.06,2.13h16.83V369.3Zm.1-4c0,.71,0,1.41-.05,2.13h16.72v-2.13Zm.12-4c0,.7,0,1.4-.07,2.12h16.62v-2.12Zm.16-4c0,.71-.06,1.41-.09,2.12h16.48v-2.12Zm.18-4c0,.71-.06,1.41-.09,2.13h16.3v-2.13Zm.21-4c0,.71-.08,1.41-.11,2.13h16.12v-2.13Zm.24-4c0,.7-.09,1.4-.12,2.12h15.89v-2.12Zm.26-4c-.05.7-.1,1.4-.14,2.12h15.65v-2.12Zm.3-4c-.05.7-.1,1.41-.16,2.13h15.37v-2.13Zm.34-4c-.06.7-.13,1.41-.18,2.13h15v-2.13Zm.39-4c-.07.7-.15,1.4-.22,2.12h14.7v-2.12Zm.42-4c-.09.7-.16,1.4-.24,2.12h14.29v-2.12Zm.48-4c-.09.7-.18,1.41-.26,2.13h13.84v-2.13Zm.55-4c-.1.7-.2,1.4-.3,2.13h13.33v-2.13Zm.64-4c-.12.69-.25,1.39-.35,2.12h12.74v-2.12Zm.75-4c-.14.68-.28,1.39-.42,2.12h12.06v-2.12Zm.92-4c-.18.67-.35,1.37-.53,2.13h11.25V306Zm1.22-4c-.24.64-.48,1.35-.71,2.11h10.21V302Z" transform="translate(-135.74 -135.5)" fill="url(#linear-gradient-63)"/><path d="M434.49,293.8v3.63h1.31V293.8Zm2.68,0v3.63h1.31V293.8Zm2.68,0v3.63h1.31V293.8Zm2.69,0v3.63h1.31V293.8Zm2.67,0v3.63h1.31V293.8Zm2.69,0v3.63h1.31V293.8Z" transform="translate(-135.74 -135.5)" fill="url(#linear-gradient-64)"/><path d="M434.72,381.18c0,.71,0,1.41,0,2.13h.68c0-.59,0-1.19,0-1.78h16.27v-.35Zm0-4c0,.71,0,1.41,0,2.12h.68c0-.59,0-1.19,0-1.77h16.23v-.35Zm.05-4c0,.71,0,1.41,0,2.12h.69c0-.59,0-1.19,0-1.77h16.18v-.35Zm.09-4q0,1.06-.06,2.13h.7c0-.6,0-1.19,0-1.79h16.09v-.34Zm.1-4c0,.71,0,1.41-.05,2.13h.69c0-.59,0-1.19,0-1.78h16v-.35Zm.12-4c0,.7,0,1.4-.07,2.12h.7c0-.6,0-1.19.06-1.77h15.86v-.35Zm.16-4c0,.71-.06,1.41-.09,2.12h.7c0-.59,0-1.19.08-1.77h15.7v-.35Zm.17-4c0,.71-.06,1.41-.09,2.13h.7c0-.6.06-1.19.08-1.79h15.53v-.34Zm.21-4c0,.71-.08,1.41-.11,2.13h.7c0-.6.06-1.19.09-1.79h15.32v-.34Zm.24-4c0,.7-.09,1.4-.12,2.12h.7c0-.6.07-1.19.1-1.77h15.09v-.35Zm.26-4c-.05.7-.1,1.4-.14,2.12h.72c0-.6.07-1.19.11-1.77h14.82v-.35Zm.3-4c-.05.7-.1,1.41-.16,2.13H437c0-.6.08-1.2.13-1.79h14.52v-.34Zm.34-4c-.06.7-.13,1.41-.18,2.13h.71c0-.6.1-1.19.15-1.79h14.18v-.34Zm.39-4c-.07.7-.15,1.41-.22,2.12h.72c.06-.6.12-1.19.18-1.77h13.8v-.35Zm.42-4c-.09.7-.16,1.4-.24,2.12h.72c.07-.6.13-1.19.21-1.77h13.37v-.35Zm.48-4c-.09.7-.18,1.41-.26,2.13h.73c.06-.6.14-1.2.22-1.79h12.9v-.34Zm.55-4c-.1.7-.2,1.4-.3,2.13h.74c.08-.61.17-1.19.26-1.78h12.34v-.35Zm.64-4c-.11.69-.24,1.39-.35,2.12h.74c.09-.61.19-1.2.29-1.78h11.71v-.34Zm.75-4c-.14.68-.28,1.39-.42,2.12h.75c.11-.61.23-1.2.35-1.77h11v-.35Zm.92-4c-.18.67-.35,1.37-.53,2.13h.77c.15-.62.3-1.22.45-1.79h10V306Zm1.22-4c-.24.64-.48,1.35-.71,2.11h.8c.19-.64.39-1.22.59-1.77h8.82V302Z" transform="translate(-135.74 -135.5)" fill="url(#linear-gradient-65)" style="mix-blend-mode:multiply"/><g mask="url(#mask-7)"><ellipse cx="344.67" cy="256.5" rx="21.24" ry="3.04" transform="translate(-72.4 445.72) rotate(-85.75)" opacity="0.88" fill="url(#radial-gradient-5)"/></g><g mask="url(#mask-8)"><ellipse cx="259.28" cy="269.04" rx="7.61" ry="3.92" transform="matrix(0, -1, 1, 0, -146.77, 391.49)" opacity="0.88" fill="url(#radial-gradient-6)"/></g><g mask="url(#mask-9)"><ellipse cx="415.95" cy="284.09" rx="17.05" ry="2.44" transform="translate(-69.77 510.86) rotate(-80.32)" opacity="0.88" fill="url(#radial-gradient-7)"/></g><g mask="url(#mask-10)"><ellipse cx="478.77" cy="301.36" rx="13.37" ry="2.82" transform="matrix(1, -0.01, 0.01, 1, -138.09, -131.74)" opacity="0.88" fill="url(#radial-gradient-8)"/></g><polyline points="211.5 251.5 225.01 251.5 230.15 251.5 231.78 251.5 235.66 251.5 235.66 251.5 241.72 251.5 241.73 251.5 247.25 251.5 252.45 251.5 256.05 251.5" fill="none"/><polyline points="179.84 251.5 172.73 251.5 170.25 251.5 154.45 251.5 149.84 251.5 146.3 251.5 143.97 251.5 141.15 251.5" fill="none"/><polyline points="270.12 251.5 252.45 251.5 247.25 251.5 241.73 251.5 241.72 251.5 235.66 251.5 235.66 251.5 231.78 251.5 230.15 251.5 225.01 251.5 222.05 251.5" fill="none"/><g opacity="0.5"><ellipse cx="121.88" cy="294.86" rx="47.42" ry="8.83" fill="url(#radial-gradient-9)"/></g><g opacity="0.5"><ellipse cx="267.66" cy="294.86" rx="47.42" ry="8.83" fill="url(#radial-gradient-10)"/></g><rect x="340.11" y="377.2" width="22.53" height="3.26" transform="translate(-301.03 249.33) rotate(-47.82)" fill="#231f20"/><rect x="354.77" y="366.9" width="14.43" height="4.19" transform="translate(-236.98 4.12) rotate(-19.21)" fill="#231f20"/><polygon points="276.28 292.79 276.12 292.17 257.27 216.33 258.5 216.02 258.65 216.64 277.5 292.48 276.28 292.79" fill="#bbbdbf"/><polygon points="257.11 292.44 255.9 292.09 256.07 291.48 277.66 216.37 278.88 216.72 278.7 217.33 257.11 292.44" fill="#bbbdbf"/><rect x="363.74" y="389.27" width="78.79" height="1.26" transform="translate(-293.45 253.55) rotate(-43.96)" fill="#bbbdbf"/><polygon points="229.31 264.52 229 263.29 229.62 263.14 305.46 244.29 305.77 245.51 305.15 245.67 229.31 264.52" fill="#bbbdbf"/><polygon points="305.07 265.9 304.46 265.72 229.35 244.13 229.7 242.91 230.31 243.09 305.42 264.68 305.07 265.9" fill="#bbbdbf"/><rect x="402.5" y="350.51" width="1.26" height="78.79" transform="translate(-293.45 253.57) rotate(-43.96)" fill="#bbbdbf"/><circle cx="403.13" cy="389.9" r="7.93" transform="translate(-182.51 -80.46) rotate(-7.38)" fill="#535354"/><path id="_Compound_Clipping_Path_3" data-name="&lt;Compound Clipping Path&gt;" d="M403.28,355.48a34.22,34.22,0,1,1-34.22,34.22,34.26,34.26,0,0,1,34.22-34.22m0-6.52A40.74,40.74,0,1,0,444,389.7,40.74,40.74,0,0,0,403.28,349Z" transform="translate(-135.74 -135.5)" fill="url(#linear-gradient-2)"/><g clip-path="url(#clip-path)"><image width="121" height="113" transform="translate(203.68 196.92)" opacity="0.6" xlink:href="filling-in-gaps1.png" style="mix-blend-mode:luminosity"/><g clip-path="url(#clip-path-2)"><path d="M403.13,433.47a43.77,43.77,0,1,1,43.77-43.77A43.82,43.82,0,0,1,403.13,433.47Zm0-81.48a37.71,37.71,0,1,0,37.71,37.71A37.76,37.76,0,0,0,403.13,352Z" transform="translate(-135.74 -135.5)" fill="#f9e647"/></g></g><g clip-path="url(#clip-path-2)"><path d="M403.13,433.47a43.77,43.77,0,1,1,43.77-43.77A43.82,43.82,0,0,1,403.13,433.47Zm0-81.48a37.71,37.71,0,1,0,37.71,37.71A37.76,37.76,0,0,0,403.13,352Z" transform="translate(-135.74 -135.5)" fill="#f9e647"/></g><polygon points="128.63 292.79 128.48 292.17 109.62 216.33 110.85 216.02 129.86 292.48 128.63 292.79" fill="#bbbdbf"/><polygon points="109.46 292.44 108.25 292.09 130.02 216.37 131.23 216.72 131.06 217.33 109.46 292.44" fill="#bbbdbf"/><rect x="216.09" y="389.27" width="78.79" height="1.26" transform="translate(-334.81 151.07) rotate(-43.96)" fill="#bbbdbf"/><polygon points="81.66 264.52 81.36 263.29 81.97 263.14 157.82 244.29 158.12 245.51 157.51 245.67 81.66 264.52" fill="#bbbdbf"/><polygon points="157.43 265.9 156.82 265.72 81.71 244.13 82.06 242.91 82.66 243.09 157.77 264.68 157.43 265.9" fill="#bbbdbf"/><rect x="254.85" y="350.51" width="1.26" height="78.79" transform="translate(-334.82 151.08) rotate(-43.96)" fill="#bbbdbf"/><circle cx="255.48" cy="389.9" r="7.93" transform="translate(-183.73 -99.43) rotate(-7.38)" fill="#535354"/><path id="_Compound_Clipping_Path_4" data-name="&lt;Compound Clipping Path&gt;" d="M255.48,355.48a34.22,34.22,0,1,1-34.22,34.22,34.26,34.26,0,0,1,34.22-34.22m0-6.52a40.74,40.74,0,1,0,40.74,40.74A40.74,40.74,0,0,0,255.48,349Z" transform="translate(-135.74 -135.5)" fill="url(#linear-gradient-4)"/><g clip-path="url(#clip-path-4)"><image width="109" height="109" transform="translate(66.68 200.92)" opacity="0.6" xlink:href="filling-in-gaps2.png" style="mix-blend-mode:luminosity"/><g clip-path="url(#clip-path-5)"><path d="M255.48,433.62A43.92,43.92,0,1,1,299.4,389.7,44,44,0,0,1,255.48,433.62Zm0-81.48A37.56,37.56,0,1,0,293,389.7,37.6,37.6,0,0,0,255.48,352.14Z" transform="translate(-135.74 -135.5)" fill="#535354"/></g></g><g clip-path="url(#clip-path-5)"><path d="M255.48,433.62A43.92,43.92,0,1,1,299.4,389.7,44,44,0,0,1,255.48,433.62Zm0-81.48A37.56,37.56,0,1,0,293,389.7,37.6,37.6,0,0,0,255.48,352.14Z" transform="translate(-135.74 -135.5)" fill="#535354"/></g><g clip-path="url(#clip-path-7)"><path d="M403.13,433.47a43.77,43.77,0,1,1,43.77-43.77A43.82,43.82,0,0,1,403.13,433.47Zm0-81.48a37.71,37.71,0,1,0,37.71,37.71A37.76,37.76,0,0,0,403.13,352Z" transform="translate(-135.74 -135.5)" fill="#ffcf01"/></g><rect x="337.48" y="331.59" width="53.35" height="3.26" transform="translate(-210.27 424.01) rotate(-69.75)" fill="#808184"/><rect x="258.55" y="330.36" width="53.35" height="3.26" transform="translate(-260.72 349.15) rotate(-69.75)" fill="#535354"/><rect x="324.43" y="362" width="56.69" height="5.59" transform="translate(-247.31 434) rotate(-69.75)" fill="#f9e647"/><path d="M289.89,327.58l-6.68,16.63-3.34,8.31-1.7,4.19c-.59,1.4-1.2,2.8-1.84,4.18a127.89,127.89,0,0,1-8.8,16c-.82,1.28-1.68,2.53-2.54,3.78s-1.76,2.46-2.63,3.67l-5.25,7.26a2,2,0,0,1-3.27-2.32l5.12-7.35c1.74-2.46,3.35-4.85,4.89-7.37A123.33,123.33,0,0,0,272,358.93c.59-1.34,1.14-2.7,1.68-4.06l1.57-4.15,3.15-8.39,6.29-16.78a2.79,2.79,0,1,1,5.23,2Z" transform="translate(-135.74 -135.5)" fill="#f9e647"/><path d="M404.49,390.82a1.62,1.62,0,0,1-1.11-.44l-45.3-42.28a1.63,1.63,0,1,1,2.22-2.38L405.6,388a1.63,1.63,0,0,1-1.11,2.82Z" transform="translate(-135.74 -135.5)" fill="#f9e647"/><path d="M383.61,366.88a2.09,2.09,0,0,1-1.44-.57L369,353.82l5.72-6.27a2.09,2.09,0,0,1,3.09,2.83l-2.95,3.23,10.23,9.67a2.1,2.1,0,0,1-1.44,3.62Z" transform="translate(-135.74 -135.5)" fill="#535354"/><path d="M348.28,378.47h-9.72a38.85,38.85,0,0,1-16-3.42l-19.36-8.68a1.63,1.63,0,1,1,1.33-3l19.36,8.68a35.62,35.62,0,0,0,14.66,3.13h9.72a1.63,1.63,0,0,1,0,3.26Z" transform="translate(-135.74 -135.5)" fill="#f9e647"/><g clip-path="url(#clip-path-8)"><path d="M403.52,392.49l-38.63.62-19.31.31-2.41,0-1.21,0h-1.27a43.62,43.62,0,0,1-32.9-15,44.07,44.07,0,0,1-3.27-4.25l-.71-1.07-.66-1-1.32-2L296.55,362l-21.12-32.35a5.31,5.31,0,0,1,8.9-5.81l.09.15,20,33,5,8.26,1.25,2.06.63,1,.59,1a35.42,35.42,0,0,0,24.52,16.11,35.82,35.82,0,0,0,4.34.41l.55,0h.6l1.21,0,2.41,0,19.31.31,38.63.62a2.79,2.79,0,0,1,0,5.59Z" transform="translate(-135.74 -135.5)" fill="#f9e647"/></g><g clip-path="url(#clip-path-9)"><path d="M403.52,392.49l-38.63.62-19.31.31-2.41,0-1.21,0h-1.27a43.62,43.62,0,0,1-32.9-15,44.07,44.07,0,0,1-3.27-4.25l-.71-1.07-.66-1-1.32-2L296.55,362l-21.12-32.35a5.31,5.31,0,0,1,8.9-5.81l.09.15,20,33,5,8.26,1.25,2.06.63,1,.59,1a35.42,35.42,0,0,0,24.52,16.11,35.82,35.82,0,0,0,4.34.41l.55,0h.6l1.21,0,2.41,0,19.31.31,38.63.62a2.79,2.79,0,0,1,0,5.59Z" transform="translate(-135.74 -135.5)" fill="#ffcf01"/></g><path d="M365.83,341.39a1.16,1.16,0,0,1-.42-.08l-7-2.71a1.16,1.16,0,0,1,.84-2.17l7,2.71a1.16,1.16,0,0,1-.42,2.25Z" transform="translate(-135.74 -135.5)" fill="#535354"/><path d="M291.76,327a1.16,1.16,0,0,1-.42-.08l-7-2.71a1.16,1.16,0,1,1,.84-2.17l7,2.71a1.16,1.16,0,0,1-.42,2.25Z" transform="translate(-135.74 -135.5)" fill="#535354"/><path d="M291.76,327a1.16,1.16,0,0,1-.42-.08l-7-2.71a1.16,1.16,0,1,1,.84-2.17l7,2.71a1.16,1.16,0,0,1-.42,2.25Z" transform="translate(-135.74 -135.5)" fill="#535354"/><path id="_Clipping_Path_2" data-name="&lt;Clipping Path&gt;" d="M329.53,390.58a12.92,12.92,0,0,0,23.81,6.08A16.93,16.93,0,0,1,366.56,389l33-2.22-10.71-9.94h-46.4A12.92,12.92,0,0,0,329.53,390.58Z" transform="translate(-135.74 -135.5)" fill="url(#linear-gradient-3)"/><g clip-path="url(#clip-path-10)"><polygon points="208.25 255.36 201.88 268.54 199.03 265.48 208.25 255.36"/></g><rect x="323.94" y="396.48" width="22.53" height="3.26" transform="translate(-320.63 243.68) rotate(-47.82)" fill="#535354"/><rect x="320.3" y="405.41" width="14.43" height="4.19" transform="translate(-251.57 -5.08) rotate(-19.21)" fill="#535354"/><path d="M289.81,314.57l-3.18-25.46a6.14,6.14,0,0,1,4.41-6.64l10.43-3,.9,3.13-10.43,3a2.89,2.89,0,0,0-2.08,3.12L293,314.16Z" transform="translate(-135.74 -135.5)" fill="#535354"/><path d="M294.05,286.32a3,3,0,0,1-.84-5.93l7.87-2.27a3,3,0,0,1,1.68,5.81l-7.87,2.27A3,3,0,0,1,294.05,286.32Z" transform="translate(-135.74 -135.5)" fill="url(#linear-gradient-69)"/><path d="M354.64,401.2a.7.7,0,0,1,0-1.4l.46,0a.69.69,0,0,1,.74.65.7.7,0,0,1-.65.74l-.46,0Zm4.18-.27a.7.7,0,0,1,0-1.4l.46,0a.69.69,0,0,1,.74.65.7.7,0,0,1-.65.74l-.46,0Zm4.18-.27a.7.7,0,0,1,0-1.4l.46,0a.69.69,0,0,1,.74.65.7.7,0,0,1-.65.74l-.46,0Zm4.18-.27a.7.7,0,0,1,0-1.4l.46,0a.69.69,0,0,1,.74.65.7.7,0,0,1-.65.74l-.46,0Zm4.18-.27a.7.7,0,0,1,0-1.4l.46,0a.69.69,0,0,1,.74.65.7.7,0,0,1-.65.74l-.46,0Zm4.18-.27a.7.7,0,0,1,0-1.4l.46,0a.69.69,0,0,1,.74.65.7.7,0,0,1-.65.74l-.46,0Zm4.18-.27a.7.7,0,0,1,0-1.4l.46,0a.69.69,0,0,1,.74.65.7.7,0,0,1-.65.74l-.46,0Zm4.18-.27a.7.7,0,0,1,0-1.4l.46,0a.69.69,0,0,1,.74.65.7.7,0,0,1-.65.74l-.46,0Zm4.18-.27a.7.7,0,0,1,0-1.4l.47,0a.68.68,0,0,1,.74.65.7.7,0,0,1-.65.74l-.47,0Zm4.18-.27a.7.7,0,0,1,0-1.4l.46,0a.69.69,0,0,1,.74.65.7.7,0,0,1-.65.74l-.46,0Zm4.18-.27a.7.7,0,0,1,0-1.4l.46,0a.69.69,0,0,1,.74.65.7.7,0,0,1-.65.74l-.47,0Z" transform="translate(-135.74 -135.5)" fill="#808184"/><polygon points="225.24 215.32 222.62 213 223.7 219.26 225.24 215.32" fill="#ffcf01"/><polygon points="238.83 174.28 237.94 176.57 234.9 175.43 235.96 172.5 238.83 174.28" fill="#58595b"/><path d="M375.11,310.45a39.81,39.81,0,0,0-4.67-1.93,40.55,40.55,0,0,0-4.65-1.32c-.78-.17-1.57-.32-2.36-.44l-1.19-.17c-.4-.05-.83-.09-1.24-.13a40.84,40.84,0,0,0-5-.21,3.79,3.79,0,0,1-.21-7.58h.37a41.2,41.2,0,0,0,5,0l1.26-.07,1.31-.08,2.63-.17c1.76-.11,3.54-.23,5.31-.36a52.11,52.11,0,0,0,5.24-.6h0a6.93,6.93,0,1,1-1.84,13Z" transform="translate(-135.74 -135.5)" fill="#535354"/><path d="M375.11,310.45a39.81,39.81,0,0,0-4.67-1.93,40.55,40.55,0,0,0-4.65-1.32c-.78-.17-1.57-.32-2.36-.44l-1.19-.17c-.4-.05-.83-.09-1.24-.13a40.84,40.84,0,0,0-5-.21,3.79,3.79,0,0,1-.21-7.58h.37a41.2,41.2,0,0,0,5,0l1.26-.07,1.31-.08,2.63-.17c1.76-.11,3.54-.23,5.31-.36a52.11,52.11,0,0,0,5.24-.6h0a6.93,6.93,0,1,1-1.84,13Z" transform="translate(-135.74 -135.5)" fill="url(#linear-gradient-70)"/><rect width="384" height="384" fill="none"/></g></g></svg>