<svg id="Layer_1" data-name="Layer 1" xmlns="http://www.w3.org/2000/svg" xmlns:xlink="http://www.w3.org/1999/xlink" viewBox="0 0 297 297"><defs><style>.cls-1{fill:#e2e3e3;}.cls-2{stroke-miterlimit:10;stroke-width:0.35px;fill:url(#linear-gradient);stroke:url(#linear-gradient-2);}.cls-3{fill:url(#linear-gradient-3);}.cls-4{fill:#999;}.cls-5{fill:#ecf0f1;}.cls-6{fill:url(#linear-gradient-4);}.cls-7{opacity:0.5;}.cls-8{fill:url(#radial-gradient);}.cls-9{fill:url(#linear-gradient-5);}.cls-10{fill:url(#linear-gradient-6);}.cls-11{fill:#fbd333;}.cls-12{fill:#606060;}.cls-13{fill:#f1b031;}</style><linearGradient id="linear-gradient" x1="149" y1="225.57" x2="149" y2="71.43" gradientUnits="userSpaceOnUse"><stop offset="0" stop-color="#fff" stop-opacity="0"/><stop offset=".06" stop-color="#e1e1e1" stop-opacity=".12"/><stop offset=".17" stop-color="#b9b9b9" stop-opacity=".29"/><stop offset=".29" stop-color="#9d9d9d" stop-opacity=".41"/><stop offset=".42" stop-color="#8c8c8c" stop-opacity=".48"/><stop offset=".61" stop-color="#878787" stop-opacity=".5"/><stop offset=".72" stop-color="#878787" stop-opacity=".61"/><stop offset=".93" stop-color="#878787" stop-opacity=".89"/><stop offset="1" stop-color="#878787"/></linearGradient><linearGradient id="linear-gradient-2" x1="71.75" y1="148.5" x2="226.25" y2="148.5" gradientUnits="userSpaceOnUse"><stop offset="0" stop-color="#ccc"/><stop offset=".16" stop-color="#ccc" stop-opacity=".76"/><stop offset=".31" stop-color="#ccc" stop-opacity=".57"/><stop offset=".39" stop-color="#ccc" stop-opacity=".5"/><stop offset=".55" stop-color="#cdcdcd" stop-opacity=".49"/><stop offset=".66" stop-color="#d2d2d2" stop-opacity=".44"/><stop offset=".76" stop-color="#dadada" stop-opacity=".36"/><stop offset=".86" stop-color="#e5e5e5" stop-opacity=".25"/><stop offset=".95" stop-color="#f4f4f4" stop-opacity=".11"/><stop offset="1" stop-color="#fff" stop-opacity="0"/></linearGradient><linearGradient id="linear-gradient-3" x1="555.8" y1="-650.11" x2="582.93" y2="-628.56" gradientTransform="matrix(.7 .7 .7 -.7 142.21 -707.51)" gradientUnits="userSpaceOnUse"><stop offset="0" stop-color="#e6e6e6"/><stop offset=".74" stop-color="#b3b3b3"/></linearGradient><linearGradient id="linear-gradient-4" x1="-434.94" y1="-142.95" x2="-455.93" y2="-96.54" gradientTransform="matrix(-.7 .7 .7 .7 -12.85 569.15)" gradientUnits="userSpaceOnUse"><stop offset="0" stop-color="gray"/><stop offset=".74"/></linearGradient><radialGradient id="radial-gradient" cx="1.19" cy="-479.34" r="26.25" gradientTransform="matrix(2.77 0 0 2.54 145.16 1360.5)" gradientUnits="userSpaceOnUse"><stop offset="0"/><stop offset="1" stop-color="#fff" stop-opacity="0"/></radialGradient><linearGradient id="linear-gradient-5" x1="99.57" y1="152.91" x2="193.28" y2="152.91" xlink:href="#linear-gradient-4"/><linearGradient id="linear-gradient-6" x1="98.73" y1="137.56" x2="196.6" y2="137.56" gradientUnits="userSpaceOnUse"><stop offset="0" stop-color="#f9e647"/><stop offset=".56" stop-color="#f9e445"/><stop offset=".83" stop-color="#fadd3d"/><stop offset="1" stop-color="#fbd333"/></linearGradient></defs><title>ofo-website</title><path class="cls-2" d="M226.07 127.48h-56.05V71.42h-42.04v56.06H71.92v42.04h56.06v56.05h42.04v-56.05h56.05v-42.04z"/><path class="cls-3" d="M89.23 100.3a9.69 9.69 0 0 0-7.39 16.23 4.52 4.52 0 0 1 1.16 3.05v52.09a4.52 4.52 0 0 1-1.46 3.33A11.13 11.13 0 0 0 80 189.82a.56.56 0 0 0 1-.17l1.59-5.52a2.68 2.68 0 0 1 3.32-1.83l6.23 1.8a2.68 2.68 0 0 1 1.83 3.32L92.33 193a.56.56 0 0 0 .73.67 11.11 11.11 0 0 0 3.06-18.9 4.56 4.56 0 0 1-1.6-3.5v-51.19a4.54 4.54 0 0 1 1.32-3.22 9.69 9.69 0 0 0-6.61-16.56zm-.25 4l1.19-.76a.42.42 0 0 1 .59.16l.65 1.25a.42.42 0 0 0 .39.22l1.41-.07a.42.42 0 0 1 .43.43l-.06 1.47a.42.42 0 0 0 .22.39l1.25.65a.42.42 0 0 1 .16.59l-.76 1.19a.42.42 0 0 0 0 .45l.76 1.19a.42.42 0 0 1-.16.59l-1.25.65a.42.42 0 0 0-.22.39l.07 1.41a.42.42 0 0 1-.43.43l-1.41-.07a.42.42 0 0 0-.39.22l-.65 1.25a.42.42 0 0 1-.59.16l-1.18-.81a.42.42 0 0 0-.45 0l-1.19.76a.42.42 0 0 1-.59-.16l-.66-1.28a.42.42 0 0 0-.39-.22l-1.41.07a.42.42 0 0 1-.43-.43l.07-1.41a.42.42 0 0 0-.22-.39l-1.26-.62a.42.42 0 0 1-.16-.59l.76-1.19a.42.42 0 0 0 0-.45l-.76-1.19a.42.42 0 0 1 .16-.59l1.25-.65a.42.42 0 0 0 .22-.39l-.07-1.41a.42.42 0 0 1 .43-.43l1.41.07a.42.42 0 0 0 .39-.22l.65-1.25a.42.42 0 0 1 .59-.16l1.19.76a.42.42 0 0 0 .47-.01z"/><path class="cls-4" d="M88.74 121.69a3.33 3.33 0 0 0-3.33 3.31l-.07 43.43a3.33 3.33 0 0 0 3.32 3.33 3.33 3.33 0 0 0 3.34-3.3l.06-43.46a3.33 3.33 0 0 0-3.32-3.31z"/><path class="cls-5" d="M205.92 99.88c-.24 2.15-.71 6.69-.7 8.46 0 .3.13 1.61 1.72 5.66l.09.24-.4 34.7h4.25l-.4-34.7.09-.24c1.59-4.06 1.72-5.36 1.72-5.66 0-1.77-.46-6.32-.7-8.46z"/><path class="cls-6" d="M215.64 188a36.83 36.83 0 0 0 1.47-14.33 42 42 0 0 0-2.08-9c-.86-2.5-1.68-4.4-1.92-5.66 0-.21-.2-1.39-.24-1.77a63.07 63.07 0 0 1-.18-8.47c.16-1.17 1-6.57 1.13-7.08a2.41 2.41 0 0 0-.16-1.39c-.19-.23-1-.16-1.2-.44a14.41 14.41 0 0 1-.81-1.39c-.25-.5-.32-.73-1-.81-.32 0-1.13-.05-1.94-.05s-1.62 0-1.94.05c-.65.07-.71.3-1 .8a14.41 14.41 0 0 1-.81 1.39c-.2.27-1 .21-1.2.44a2.35 2.35 0 0 0-.16 1.39c.08.52 1 5.92 1.12 7.08a63.06 63.06 0 0 1-.18 8.47c0 .38-.19 1.56-.23 1.76-.25 1.26-1.07 3.16-1.92 5.67a41.85 41.85 0 0 0-2.08 9 36.83 36.83 0 0 0 1.56 14.34c.17.66 1.57 7.06 6.88 7.07s6.71-6.38 6.89-7.07zm-6.88.68a2.32 2.32 0 1 1-2.53 2.31 2.43 2.43 0 0 1 2.53-2.28z"/><ellipse class="cls-7 cls-8" cx="148.44" cy="145" rx="72.69" ry="66.56"/><path d="M155.69 185.5l-16.54-26.79 5.66-3.5 12.75 20.64 27.97-20.64 3.95 5.35-33.79 24.94z"/><path class="cls-9" d="M99.57 149s3.33 6.66 20.38 10.4 30.36 5.27 40.06.83 11.15-9.09 17.74-7.21c4.85 1.39 3 9.06 8 10.81 4 1.39 5-.28 5-.28l2.5-12.48-13-8.59-29.11-1.11s-18 4.44-21.63 4.44S99.57 149 99.57 149z"/><path class="cls-10" d="M151.8 107.86c-29.22 0-53.07 24.11-53.07 43.25v.28c9.77 2.76 30.9 8 50.57 7.76 18.46-1.25 15-11.92 28.16-11.92 6.89 0 11.21 10.54 8.95 20 9.92-3.73 10.18-13.19 10.18-20 .01-19.14-13.59-39.37-44.79-39.37z"/><path class="cls-11" d="M168.33 130c-28.15 0-27.57 19.49-55.1 24.94 10.41 2.23 23.54 4.3 36.09 4.17 18.46-1.25 15-11.92 28.16-11.92 6.89 0 11.21 10.54 8.95 20 9.92-3.73 10.18-13.19 10.18-20 0-1 0-2.05-.13-3.08A33.66 33.66 0 0 0 168.33 130z"/><path d="M114.34 148.37c-1.91 1-2.45.33-1.21-1.41l14.56-20.34c1.24-1.74 2.56-1.44 2.93.67l1.41 8a5.56 5.56 0 0 1-2.79 5.57zM137.46 134.2c-1.49 1.53-2.62 1-2.51-1.1l.37-7a5.88 5.88 0 0 1 3.93-5l11.75-3.42c2-.6 2.5.15 1 1.68zM152.87 128.75c-1.93.92-2.53.22-1.35-1.56l5.42-8.11a7.12 7.12 0 0 1 6-2.84l9.48.94c2.12.21 2.28 1.14.36 2.06zM171 126.34c-2.08-.47-2.06-1.14 0-1.48l9.42-1.52a3.92 3.92 0 0 1 4.54 2.87c.39 1.92-1 3.1-3.07 2.63zM146.27 202.762l7.06-23.105 6.36 1.943-7.06 23.106z"/><path class="cls-12" d="M148.89 191.816l.558-1.93 7.53 2.18-.56 1.932z"/><path class="cls-13" d="M156.67 191.5l-6.36-2a1.67 1.67 0 0 0-2.08 1.1l-1.55 5a1.67 1.67 0 0 0 1.1 2.08l6.36 2a1.67 1.67 0 0 0 2.08-1.1l1.54-5a1.67 1.67 0 0 0-1.09-2.08zm-2 6.63l-6.36-2 1.54-5 6.36 2z"/></svg>