<svg width="50" height="50" viewBox="0 0 50 50" xmlns="http://www.w3.org/2000/svg"><title>bullet-circle-3</title><g fill="none" fill-rule="evenodd"><circle fill="#181919" cx="25" cy="25" r="25"/><path d="M20.675 18.2300524c.945-1.4 2.24-2.205 3.99-2.065 1.12.07 2.17.595 2.66 1.33.525.735.525 1.575.385 2.345-.28 1.47-1.505 2.66-3.15 2.625h-2.59v3.045h2.59c2.415 0 4.48 1.89 4.41 4.095-.105 2.24-2.45 3.885-4.97 3.745h.035c-1.855-.14-3.57-1.575-4.27-3.15l-2.765 1.505c1.19 2.625 3.78 4.55 6.79 4.76 4.235.315 8.015-2.555 8.365-6.44.21-2.45-1.295-5.285-3.605-6.16 1.225-.7 2.1-1.855 2.485-3.115.14-.49.21-.945.21-1.4.105-3.22-2.555-6.125-6.3-6.335-2.835-.175-5.355 1.19-6.615 3.36l2.345 1.855z" fill="#FFF"/></g></svg>